<svg width="452" height="452" viewBox="0 0 452 452" fill="none" xmlns="http://www.w3.org/2000/svg">
<circle cx="226" cy="226" r="226" fill="white"/>
<path d="M375.598 103.733H296.572V348.366H375.598V103.733Z" fill="#FF7324" stroke="#FF7324"/>
<path d="M405 118.851H384.467V218.516H405V118.851Z" fill="#FF7324" stroke="#FF7324"/>
<path d="M135.81 103.733H88.2393V237.897H135.81V103.733Z" fill="#FF7324" stroke="#FF7324"/>
<path d="M299.333 280.111H90.8966V348.366H299.333V280.111Z" fill="#FF7324" stroke="#FF7324"/>
<path d="M299.333 103.733H135.81V167.225H299.333V103.733Z" fill="#FF7324" stroke="#FF7324"/>
<path d="M117.469 237.828H109.773V268.03H117.469V237.828Z" fill="#FF7324" stroke="#FF7324"/>
<path d="M384.467 134.556H375.408V202.812H384.467V134.556Z" fill="#FF7324" stroke="#FF7324"/>
<path d="M341.52 59H330.65V199.308H341.52V59Z" fill="#FF7324" stroke="#FF7324"/>
<path d="M92.2942 348.366H46L90.8966 280.111L92.2942 348.366Z" fill="#FF7324" stroke="#FF7324"/>
<path d="M169.336 167.208L135.81 237.897H88.2393L73.9869 103.733H162.728L169.336 167.208Z" fill="#FF7324" stroke="#FF7324"/>
<path d="M172.097 167.208L299.333 187.866L298.625 152.194L172.097 167.208Z" fill="#FF7324" stroke="#FF7324"/>
</svg>
