<svg width="3581" height="933" viewBox="0 0 3581 933" fill="none" xmlns="http://www.w3.org/2000/svg">
<path d="M1121.51 144.856H852.849V931.57H1121.51V144.856Z" fill="#FF7324"/>
<path d="M1221.46 193.475H1151.66V513.988H1221.46V193.475Z" fill="#FF7324"/>
<path d="M306.322 144.856H144.598V576.314H306.322V144.856Z" fill="#FF7324"/>
<path d="M862.237 712.068H153.633V931.57H862.237V712.068Z" fill="#FF7324"/>
<path d="M862.237 144.856H306.322L306.323 349.041H862.237V144.856Z" fill="#FF7324"/>
<path d="M243.965 576.092H217.803V673.218H243.965V576.092Z" fill="#FF7324"/>
<path d="M1151.66 243.98H1120.87V463.482H1151.66V243.98Z" fill="#FF7324"/>
<path d="M1005.66 1H968.703V452.216H1005.66V1Z" fill="#FF7324"/>
<path d="M158.383 931.57H1L153.631 712.068L158.383 931.57Z" fill="#FF7324"/>
<path d="M420.298 348.985L306.322 576.314H144.598L96.1469 144.856H397.832L420.298 348.985Z" fill="#FF7324"/>
<path d="M429.68 348.986L862.233 415.42L859.828 300.701L429.68 348.986Z" fill="#FF7324"/>
<path d="M306.322 144.856H144.598V576.314M306.322 144.856V576.314M306.322 144.856H862.237V349.041H306.323L306.322 144.856ZM306.322 576.314H144.598M306.322 576.314L420.298 348.985L397.832 144.856H96.1469L144.598 576.314M852.849 144.856H1121.51V931.57H852.849V144.856ZM1151.66 193.475H1221.46V513.988H1151.66V193.475ZM153.633 712.068H862.237V931.57H153.633V712.068ZM217.803 576.092H243.965V673.218H217.803V576.092ZM1120.87 243.98H1151.66V463.482H1120.87V243.98ZM968.703 1H1005.66V452.216H968.703V1ZM158.383 931.57H1L153.631 712.068L158.383 931.57ZM429.68 348.986L862.233 415.42L859.828 300.701L429.68 348.986Z" stroke="#FF7324"/>
<path d="M1535.85 645.649C1501.43 645.649 1468.34 640.133 1436.57 629.102C1405.24 618.071 1380.97 603.511 1363.76 585.42L1382.96 547.694C1399.72 564.461 1422.01 578.139 1449.8 588.729C1477.6 598.878 1506.28 603.952 1535.85 603.952C1577.32 603.952 1608.43 596.451 1629.17 581.449C1649.91 566.005 1660.27 546.15 1660.27 521.882C1660.27 503.35 1654.54 488.568 1643.07 477.537C1632.04 466.506 1618.36 458.123 1602.03 452.387C1585.71 446.209 1562.98 439.591 1533.86 432.531C1499 423.706 1471.2 415.323 1450.47 407.38C1429.73 398.997 1411.86 386.422 1396.86 369.655C1382.29 352.888 1375.01 330.164 1375.01 301.483C1375.01 278.098 1381.19 256.918 1393.55 237.945C1405.9 218.531 1424.87 203.087 1450.47 191.615C1476.06 180.143 1507.83 174.407 1545.77 174.407C1572.25 174.407 1598.06 178.157 1623.21 185.659C1648.8 192.718 1670.86 202.646 1689.4 215.442L1672.85 254.492C1653.44 241.696 1632.7 232.209 1610.64 226.032C1588.57 219.413 1566.95 216.104 1545.77 216.104C1505.18 216.104 1474.51 224.046 1453.78 239.931C1433.48 255.374 1423.33 275.45 1423.33 300.16C1423.33 318.692 1428.85 333.694 1439.88 345.166C1451.35 356.197 1465.47 364.801 1482.24 370.978C1499.44 376.714 1522.39 383.112 1551.07 390.172C1585.04 398.556 1612.4 406.939 1633.14 415.323C1654.32 423.265 1672.19 435.62 1686.75 452.387C1701.31 468.713 1708.59 490.995 1708.59 519.234C1708.59 542.62 1702.19 564.02 1689.4 583.434C1677.04 602.408 1657.85 617.63 1631.81 629.102C1605.78 640.133 1573.79 645.649 1535.85 645.649Z" fill="#777B7D"/>
<path d="M2119.1 293.541V641.678H2074.09V578.139C2061.74 599.319 2044.75 615.865 2023.13 627.779C2001.51 639.251 1976.8 644.987 1949 644.987C1903.55 644.987 1867.59 632.412 1841.12 607.261C1815.08 581.669 1802.07 544.385 1802.07 495.407V293.541H1849.06V490.774C1849.06 527.397 1858.1 555.195 1876.19 574.168C1894.29 593.142 1920.1 602.628 1953.63 602.628C1990.25 602.628 2019.16 591.597 2040.34 569.535C2061.51 547.032 2072.1 515.925 2072.1 476.214V293.541H2119.1Z" fill="#777B7D"/>
<path d="M2553.84 482.17H2262.62C2265.27 518.352 2279.17 547.694 2304.32 570.197C2329.47 592.259 2361.24 603.29 2399.63 603.29C2421.25 603.29 2441.1 599.54 2459.19 592.038C2477.28 584.096 2492.95 572.624 2506.18 557.622L2532.66 588.067C2517.22 606.599 2497.8 620.719 2474.42 630.426C2451.47 640.133 2426.1 644.987 2398.3 644.987C2362.56 644.987 2330.79 637.486 2302.99 622.484C2275.64 607.041 2254.24 585.861 2238.79 558.946C2223.35 532.03 2215.63 501.585 2215.63 467.609C2215.63 433.634 2222.91 403.189 2237.47 376.273C2252.47 349.358 2272.77 328.399 2298.36 313.397C2324.39 298.395 2353.52 290.894 2385.73 290.894C2417.94 290.894 2446.84 298.395 2472.43 313.397C2498.02 328.399 2518.1 349.358 2532.66 376.273C2547.22 402.747 2554.5 433.193 2554.5 467.609L2553.84 482.17ZM2385.73 331.267C2352.19 331.267 2323.95 342.077 2301.01 363.698C2278.51 384.877 2265.71 412.675 2262.62 447.092H2509.49C2506.4 412.675 2493.39 384.877 2470.44 363.698C2447.94 342.077 2419.7 331.267 2385.73 331.267Z" fill="#777B7D"/>
<path d="M2650.15 150.58H2697.14V641.678H2650.15V150.58Z" fill="#777B7D"/>
<path d="M2827.89 293.541H2874.88V641.678H2827.89V293.541ZM2851.72 217.428C2842.01 217.428 2833.85 214.118 2827.23 207.5C2820.61 200.881 2817.3 192.939 2817.3 183.673C2817.3 174.848 2820.61 167.127 2827.23 160.508C2833.85 153.889 2842.01 150.58 2851.72 150.58C2861.43 150.58 2869.59 153.889 2876.21 160.508C2882.83 166.685 2886.14 174.186 2886.14 183.011C2886.14 192.718 2882.83 200.881 2876.21 207.5C2869.59 214.118 2861.43 217.428 2851.72 217.428Z" fill="#777B7D"/>
<path d="M3308.77 482.17H3017.55C3020.2 518.352 3034.1 547.694 3059.25 570.197C3084.4 592.259 3116.17 603.29 3154.56 603.29C3176.18 603.29 3196.03 599.54 3214.12 592.038C3232.21 584.096 3247.88 572.624 3261.11 557.622L3287.59 588.067C3272.15 606.599 3252.73 620.719 3229.35 630.426C3206.4 640.133 3181.03 644.987 3153.23 644.987C3117.49 644.987 3085.72 637.486 3057.92 622.484C3030.57 607.041 3009.17 585.861 2993.72 558.946C2978.28 532.03 2970.56 501.585 2970.56 467.609C2970.56 433.634 2977.84 403.189 2992.4 376.273C3007.4 349.358 3027.7 328.399 3053.29 313.397C3079.32 298.395 3108.45 290.894 3140.66 290.894C3172.87 290.894 3201.77 298.395 3227.36 313.397C3252.95 328.399 3273.03 349.358 3287.59 376.273C3302.15 402.747 3309.43 433.193 3309.43 467.609L3308.77 482.17ZM3140.66 331.267C3107.12 331.267 3078.88 342.077 3055.94 363.698C3033.44 384.877 3020.64 412.675 3017.55 447.092H3264.42C3261.33 412.675 3248.32 384.877 3225.37 363.698C3202.87 342.077 3174.63 331.267 3140.66 331.267Z" fill="#777B7D"/>
<path d="M3450.08 361.712C3461.12 338.327 3477.44 320.677 3499.06 308.764C3521.12 296.85 3548.26 290.894 3580.47 290.894V336.562L3569.22 335.9C3532.6 335.9 3503.92 347.152 3483.18 369.655C3462.44 392.158 3452.07 423.706 3452.07 464.3V641.678H3405.08V293.541H3450.08V361.712Z" fill="#777B7D"/>
<path d="M1456.08 823.159L1449.88 873.195H1483.72V886.3H1448.22L1442.74 931.571H1429.87L1435.35 886.3H1386.5L1380.79 931.571H1367.92L1373.4 886.3H1339.57V873.195H1375.07L1381.26 823.159H1347.19V810.054H1382.93L1388.41 764.783H1401.52L1395.8 810.054H1444.88L1450.36 764.783H1463.23L1457.75 810.054H1491.34V823.159H1456.08ZM1443.21 823.159H1394.37L1387.93 873.195H1437.02L1443.21 823.159Z" fill="#777B7D"/>
<path d="M1598.16 933C1581.64 933 1566.7 929.347 1553.36 922.04C1540.18 914.733 1529.77 904.647 1522.15 891.78C1514.68 878.755 1510.95 864.22 1510.95 848.177C1510.95 832.134 1514.68 817.679 1522.15 804.812C1529.77 791.787 1540.26 781.621 1553.6 774.314C1566.94 767.007 1581.87 763.353 1598.39 763.353C1610.78 763.353 1622.22 765.418 1632.7 769.548C1643.19 773.678 1652.08 779.715 1659.39 787.657L1648.19 798.855C1635.17 785.671 1618.73 779.079 1598.87 779.079C1585.69 779.079 1573.69 782.097 1562.89 788.133C1552.09 794.169 1543.59 802.429 1537.4 812.913C1531.36 823.397 1528.34 835.152 1528.34 848.177C1528.34 861.202 1531.36 872.957 1537.4 883.441C1543.59 893.924 1552.09 902.184 1562.89 908.221C1573.69 914.257 1585.69 917.275 1598.87 917.275C1618.88 917.275 1635.33 910.603 1648.19 897.26L1659.39 908.459C1652.08 916.401 1643.11 922.517 1632.47 926.806C1621.98 930.936 1610.55 933 1598.16 933Z" fill="#777B7D"/>
<path d="M1739.05 932.762C1726.97 932.762 1716.09 930.062 1706.4 924.661C1696.71 919.102 1689.09 911.477 1683.53 901.787C1677.97 892.098 1675.19 881.137 1675.19 868.906C1675.19 856.675 1677.97 845.715 1683.53 836.025C1689.09 826.336 1696.71 818.791 1706.4 813.39C1716.09 807.989 1726.97 805.289 1739.05 805.289C1751.12 805.289 1762 807.989 1771.69 813.39C1781.38 818.791 1788.92 826.336 1794.32 836.025C1799.88 845.715 1802.66 856.675 1802.66 868.906C1802.66 881.137 1799.88 892.098 1794.32 901.787C1788.92 911.477 1781.38 919.102 1771.69 924.661C1762 930.062 1751.12 932.762 1739.05 932.762ZM1739.05 917.751C1747.94 917.751 1755.88 915.766 1762.87 911.795C1770.02 907.665 1775.58 901.867 1779.55 894.401C1783.52 886.935 1785.51 878.437 1785.51 868.906C1785.51 859.376 1783.52 850.877 1779.55 843.412C1775.58 835.946 1770.02 830.227 1762.87 826.256C1755.88 822.126 1747.94 820.061 1739.05 820.061C1730.15 820.061 1722.13 822.126 1714.98 826.256C1707.99 830.227 1702.43 835.946 1698.3 843.412C1694.33 850.877 1692.35 859.376 1692.35 868.906C1692.35 878.437 1694.33 886.935 1698.3 894.401C1702.43 901.867 1707.99 907.665 1714.98 911.795C1722.13 915.766 1730.15 917.751 1739.05 917.751Z" fill="#777B7D"/>
<path d="M1870.8 932.762C1860.63 932.762 1850.86 931.333 1841.49 928.473C1832.28 925.455 1825.05 921.722 1819.81 917.275L1827.43 903.932C1832.67 908.062 1839.27 911.477 1847.21 914.177C1855.15 916.719 1863.41 917.99 1871.99 917.99C1883.43 917.99 1891.84 916.242 1897.25 912.748C1902.81 909.094 1905.58 904.011 1905.58 897.498C1905.58 892.892 1904.08 889.318 1901.06 886.776C1898.04 884.076 1894.23 882.091 1889.62 880.82C1885.01 879.39 1878.9 878.04 1871.27 876.769C1861.11 874.863 1852.93 872.957 1846.73 871.051C1840.54 868.986 1835.22 865.571 1830.77 860.805C1826.48 856.04 1824.34 849.448 1824.34 841.029C1824.34 830.545 1828.7 821.967 1837.44 815.296C1846.18 808.624 1858.33 805.289 1873.9 805.289C1882 805.289 1890.1 806.401 1898.2 808.624C1906.3 810.689 1912.97 813.469 1918.21 816.964L1910.83 830.545C1900.5 823.397 1888.19 819.823 1873.9 819.823C1863.09 819.823 1854.91 821.729 1849.35 825.541C1843.95 829.354 1841.25 834.357 1841.25 840.552C1841.25 845.318 1842.76 849.13 1845.78 851.989C1848.96 854.848 1852.85 856.993 1857.45 858.422C1862.06 859.693 1868.42 861.043 1876.52 862.473C1886.52 864.379 1894.55 866.285 1900.58 868.191C1906.62 870.098 1911.78 873.354 1916.07 877.96C1920.36 882.567 1922.5 888.921 1922.5 897.022C1922.5 907.982 1917.9 916.719 1908.68 923.231C1899.63 929.585 1887 932.762 1870.8 932.762Z" fill="#777B7D"/>
<path d="M2019.78 923.946C2016.6 926.806 2012.63 929.029 2007.86 930.618C2003.26 932.047 1998.41 932.762 1993.33 932.762C1981.57 932.762 1972.52 929.585 1966.17 923.231C1959.81 916.878 1956.64 907.903 1956.64 896.307V820.538H1934.24V806.242H1956.64V778.841H1973.55V806.242H2011.68V820.538H1973.55V895.354C1973.55 902.82 1975.38 908.538 1979.03 912.509C1982.85 916.322 1988.25 918.228 1995.24 918.228C1998.73 918.228 2002.07 917.672 2005.24 916.56C2008.58 915.448 2011.44 913.86 2013.82 911.795L2019.78 923.946Z" fill="#777B7D"/>
<path d="M2163.51 806.242V931.571H2147.31V908.697C2142.86 916.322 2136.75 922.278 2128.96 926.567C2121.18 930.697 2112.28 932.762 2102.28 932.762C2085.92 932.762 2072.97 928.235 2063.44 919.181C2054.07 909.968 2049.38 896.545 2049.38 878.914V806.242H2066.3V877.246C2066.3 890.43 2069.56 900.437 2076.07 907.268C2082.58 914.098 2091.87 917.513 2103.95 917.513C2117.13 917.513 2127.53 913.542 2135.16 905.6C2142.78 897.498 2146.6 886.3 2146.6 872.004V806.242H2163.51Z" fill="#777B7D"/>
<path d="M2227.09 830.783C2231.07 822.365 2236.94 816.011 2244.73 811.722C2252.67 807.433 2262.44 805.289 2274.03 805.289V821.729L2269.98 821.491C2256.8 821.491 2246.47 825.541 2239.01 833.643C2231.54 841.744 2227.81 853.101 2227.81 867.715V931.571H2210.89V806.242H2227.09V830.783Z" fill="#777B7D"/>
<path d="M2348.27 805.289C2364.63 805.289 2377.18 809.419 2385.92 817.679C2394.66 825.78 2399.02 837.852 2399.02 853.895V931.571H2382.82V912.033C2379.01 918.546 2373.37 923.629 2365.9 927.282C2358.6 930.935 2349.86 932.762 2339.69 932.762C2325.72 932.762 2314.6 929.426 2306.34 922.755C2298.08 916.083 2293.95 907.268 2293.95 896.307C2293.95 885.665 2297.76 877.087 2305.38 870.574C2313.17 864.062 2325.48 860.805 2342.32 860.805H2382.11V853.181C2382.11 842.379 2379.09 834.199 2373.05 828.639C2367.02 822.92 2358.2 820.061 2346.6 820.061C2338.66 820.061 2331.04 821.411 2323.73 824.112C2316.42 826.653 2310.15 830.227 2304.91 834.834L2297.28 822.206C2303.64 816.805 2311.26 812.675 2320.16 809.816C2329.05 806.798 2338.42 805.289 2348.27 805.289ZM2342.32 919.419C2351.85 919.419 2360.03 917.275 2366.86 912.986C2373.69 908.538 2378.77 902.184 2382.11 893.924V873.433H2342.79C2321.35 873.433 2310.63 880.899 2310.63 895.831C2310.63 903.137 2313.41 908.935 2318.97 913.224C2324.53 917.354 2332.31 919.419 2342.32 919.419Z" fill="#777B7D"/>
</svg>
