<svg width="4908" height="1226" viewBox="0 0 4908 1226" fill="none" xmlns="http://www.w3.org/2000/svg">
<path d="M1624.26 190.073H1235.3V1224.07H1624.26V190.073Z" fill="#FF7324"/>
<path d="M1768.98 253.973H1667.92V675.229H1768.98V253.973Z" fill="#FF7324"/>
<path d="M444.043 190.073H209.901V757.146H444.043V190.073Z" fill="#FF7324"/>
<path d="M1248.89 935.569H222.982V1224.07H1248.89V935.569Z" fill="#FF7324"/>
<path d="M1248.89 190.073H444.043L444.044 458.437H1248.89V190.073Z" fill="#FF7324"/>
<path d="M353.763 756.855H315.886V884.508H353.763V756.855Z" fill="#FF7324"/>
<path d="M1667.92 320.352H1623.33V608.849H1667.92V320.352Z" fill="#FF7324"/>
<path d="M1456.54 1H1403.03V594.041H1456.54V1Z" fill="#FF7324"/>
<path d="M229.858 1224.07H2L222.979 935.569L229.858 1224.07Z" fill="#FF7324"/>
<path d="M609.057 458.364L444.043 757.146H209.901L139.753 190.073H576.53L609.057 458.364Z" fill="#FF7324"/>
<path d="M622.64 458.364L1248.89 545.679L1245.41 394.902L622.64 458.364Z" fill="#FF7324"/>
<path d="M444.043 190.073H209.901V757.146M444.043 190.073V757.146M444.043 190.073H1248.89V458.437H444.044L444.043 190.073ZM444.043 757.146H209.901M444.043 757.146L609.057 458.364L576.53 190.073H139.753L209.901 757.146M1235.3 190.073H1624.26V1224.07H1235.3V190.073ZM1667.92 253.973H1768.98V675.229H1667.92V253.973ZM222.982 935.569H1248.89V1224.07H222.982V935.569ZM315.886 756.855H353.763V884.508H315.886V756.855ZM1623.33 320.352H1667.92V608.849H1623.33V320.352ZM1403.03 1H1456.54V594.041H1403.03V1ZM229.858 1224.07H2L222.979 935.569L229.858 1224.07ZM622.64 458.364L1248.89 545.679L1245.41 394.902L622.64 458.364Z" stroke="#FF7324"/>
<path d="M2141.02 837.269C2094.46 837.269 2049.7 829.808 2006.72 814.885C1964.34 799.962 1931.51 780.264 1908.23 755.791L1934.19 704.755C1956.88 727.438 1987.02 745.942 2024.62 760.268C2062.23 773.997 2101.03 780.861 2141.02 780.861C2197.13 780.861 2239.21 770.714 2267.27 750.419C2295.32 729.527 2309.35 702.666 2309.35 669.836C2309.35 644.766 2301.59 624.77 2286.07 609.847C2271.15 594.924 2252.64 583.583 2230.56 575.823C2208.47 567.466 2177.73 558.513 2138.34 548.962C2091.18 537.024 2053.57 525.683 2025.52 514.938C1997.47 503.597 1973.29 486.585 1953 463.903C1933.3 441.22 1923.45 410.479 1923.45 371.68C1923.45 340.044 1931.81 311.393 1948.52 285.726C1965.23 259.462 1990.9 238.57 2025.52 223.05C2060.14 207.53 2103.12 199.771 2154.45 199.771C2190.27 199.771 2225.19 204.844 2259.21 214.992C2293.83 224.542 2323.68 237.973 2348.75 255.283L2326.36 308.11C2300.1 290.799 2272.04 277.966 2242.2 269.609C2212.35 260.655 2183.1 256.179 2154.45 256.179C2099.54 256.179 2058.05 266.923 2030 288.412C2002.54 309.303 1988.81 336.463 1988.81 369.89C1988.81 394.96 1996.27 415.255 2011.19 430.774C2026.71 445.697 2045.82 457.337 2068.5 465.694C2091.78 473.453 2122.82 482.109 2161.62 491.659C2207.58 503 2244.59 514.342 2272.64 525.683C2301.29 536.427 2325.47 553.141 2345.16 575.823C2364.86 597.909 2374.71 628.053 2374.71 666.255C2374.71 697.891 2366.06 726.841 2348.75 753.105C2332.03 778.772 2306.07 799.365 2270.85 814.885C2235.63 829.808 2192.36 837.269 2141.02 837.269Z" fill="#777B7D"/>
<path d="M2930.05 360.936V831.897H2869.16V745.942C2852.45 774.594 2829.47 796.978 2800.22 813.094C2770.97 828.614 2737.54 836.374 2699.94 836.374C2638.46 836.374 2589.81 819.362 2553.99 785.338C2518.78 750.717 2501.17 700.279 2501.17 634.022V360.936H2564.74V627.754C2564.74 677.298 2576.98 714.903 2601.45 740.57C2625.92 766.237 2660.84 779.071 2706.21 779.071C2755.75 779.071 2794.85 764.148 2823.5 734.302C2852.15 703.86 2866.48 661.778 2866.48 608.056V360.936H2930.05Z" fill="#777B7D"/>
<path d="M3518.17 616.115H3124.21C3127.79 665.061 3146.59 704.755 3180.62 735.198C3214.64 765.043 3257.62 779.966 3309.55 779.966C3338.8 779.966 3365.66 774.892 3390.13 764.745C3414.6 754 3435.79 738.481 3453.7 718.186L3489.52 759.373C3468.62 784.443 3442.36 803.544 3410.72 816.676C3379.68 829.808 3345.36 836.374 3307.76 836.374C3259.41 836.374 3216.43 826.226 3178.82 805.931C3141.82 785.04 3112.87 756.388 3091.97 719.977C3071.08 683.565 3060.64 642.378 3060.64 596.417C3060.64 550.455 3070.49 509.268 3090.18 472.856C3110.48 436.445 3137.94 408.092 3172.56 387.797C3207.78 367.502 3247.17 357.355 3290.75 357.355C3334.32 357.355 3373.42 367.502 3408.04 387.797C3442.66 408.092 3469.82 436.445 3489.52 472.856C3509.21 508.671 3519.06 549.858 3519.06 596.417L3518.17 616.115ZM3290.75 411.972C3245.38 411.972 3207.18 426.596 3176.14 455.845C3145.7 484.496 3128.39 522.101 3124.21 568.66H3458.18C3454 522.101 3436.39 484.496 3405.35 455.845C3374.91 426.596 3336.71 411.972 3290.75 411.972Z" fill="#777B7D"/>
<path d="M3648.46 167.538H3712.03V831.897H3648.46V167.538Z" fill="#777B7D"/>
<path d="M3888.91 360.936H3952.48V831.897H3888.91V360.936ZM3921.14 257.969C3908.01 257.969 3896.97 253.492 3888.02 244.539C3879.06 235.585 3874.59 224.841 3874.59 212.306C3874.59 200.368 3879.06 189.922 3888.02 180.968C3896.97 172.014 3908.01 167.538 3921.14 167.538C3934.28 167.538 3945.32 172.014 3954.27 180.968C3963.23 189.325 3967.7 199.472 3967.7 211.41C3967.7 224.542 3963.23 235.585 3954.27 244.539C3945.32 253.492 3934.28 257.969 3921.14 257.969Z" fill="#777B7D"/>
<path d="M4539.44 616.115H4145.48C4149.06 665.061 4167.87 704.755 4201.89 735.198C4235.91 765.043 4278.89 779.966 4330.82 779.966C4360.07 779.966 4386.93 774.892 4411.4 764.745C4435.88 754 4457.07 738.481 4474.98 718.186L4510.79 759.373C4489.9 784.443 4463.63 803.544 4432 816.676C4400.96 829.808 4366.64 836.374 4329.03 836.374C4280.68 836.374 4237.7 826.226 4200.1 805.931C4163.09 785.04 4134.14 756.388 4113.25 719.977C4092.36 683.565 4081.91 642.378 4081.91 596.417C4081.91 550.455 4091.76 509.268 4111.46 472.856C4131.75 436.445 4159.21 408.092 4193.83 387.797C4229.05 367.502 4268.44 357.355 4312.02 357.355C4355.59 357.355 4394.69 367.502 4429.31 387.797C4463.93 408.092 4491.09 436.445 4510.79 472.856C4530.49 508.671 4540.34 549.858 4540.34 596.417L4539.44 616.115ZM4312.02 411.972C4266.65 411.972 4228.45 426.596 4197.41 455.845C4166.97 484.496 4149.66 522.101 4145.48 568.66H4479.45C4475.27 522.101 4457.66 484.496 4426.63 455.845C4396.18 426.596 4357.98 411.972 4312.02 411.972Z" fill="#777B7D"/>
<path d="M4730.62 453.158C4745.54 421.522 4767.62 397.646 4796.87 381.529C4826.72 365.413 4863.43 357.355 4907 357.355V419.135L4891.78 418.239C4842.24 418.239 4803.44 433.46 4775.38 463.903C4747.33 494.345 4733.3 537.024 4733.3 591.94V831.897H4669.73V360.936H4730.62V453.158Z" fill="#777B7D"/>
<path d="M2033.11 1077.41L2024.73 1145.1H2070.5V1162.82H2022.48L2015.06 1224.07H1997.66L2005.07 1162.82H1938.99L1931.26 1224.07H1913.85L1921.26 1162.82H1875.49V1145.1H1923.52L1931.9 1077.41H1885.81V1059.68H1934.16L1941.57 998.434H1959.3L1951.56 1059.68H2017.96L2025.38 998.434H2042.78L2035.37 1059.68H2080.82V1077.41H2033.11ZM2015.71 1077.41H1949.63L1940.93 1145.1H2007.33L2015.71 1077.41Z" fill="#777B7D"/>
<path d="M2225.32 1226C2202.97 1226 2182.77 1221.06 2164.72 1211.17C2146.88 1201.29 2132.81 1187.64 2122.49 1170.24C2112.39 1152.62 2107.34 1132.95 2107.34 1111.25C2107.34 1089.55 2112.39 1069.99 2122.49 1052.59C2132.81 1034.97 2146.99 1021.21 2165.04 1011.33C2183.09 1001.44 2203.29 996.501 2225.64 996.501C2242.4 996.501 2257.87 999.294 2272.05 1004.88C2286.24 1010.47 2298.27 1018.63 2308.15 1029.38L2293 1044.53C2275.38 1026.69 2253.14 1017.77 2226.28 1017.77C2208.45 1017.77 2192.22 1021.86 2177.61 1030.02C2163 1038.19 2151.5 1049.36 2143.12 1063.55C2134.96 1077.73 2130.87 1093.63 2130.87 1111.25C2130.87 1128.87 2134.96 1144.77 2143.12 1158.96C2151.5 1173.14 2163 1184.31 2177.61 1192.48C2192.22 1200.64 2208.45 1204.73 2226.28 1204.73C2253.36 1204.73 2275.6 1195.7 2293 1177.65L2308.15 1192.8C2298.27 1203.54 2286.13 1211.82 2271.73 1217.62C2257.55 1223.21 2242.08 1226 2225.32 1226Z" fill="#777B7D"/>
<path d="M2415.91 1225.68C2399.58 1225.68 2384.86 1222.02 2371.75 1214.72C2358.65 1207.2 2348.33 1196.88 2340.81 1183.77C2333.29 1170.67 2329.53 1155.84 2329.53 1139.29C2329.53 1122.75 2333.29 1107.92 2340.81 1094.81C2348.33 1081.7 2358.65 1071.5 2371.75 1064.19C2384.86 1056.88 2399.58 1053.23 2415.91 1053.23C2432.24 1053.23 2446.96 1056.88 2460.07 1064.19C2473.18 1071.5 2483.39 1081.7 2490.69 1094.81C2498.22 1107.92 2501.98 1122.75 2501.98 1139.29C2501.98 1155.84 2498.22 1170.67 2490.69 1183.77C2483.39 1196.88 2473.18 1207.2 2460.07 1214.72C2446.96 1222.02 2432.24 1225.68 2415.91 1225.68ZM2415.91 1205.37C2427.95 1205.37 2438.69 1202.68 2448.15 1197.31C2457.82 1191.73 2465.34 1183.88 2470.71 1173.78C2476.08 1163.68 2478.77 1152.19 2478.77 1139.29C2478.77 1126.4 2476.08 1114.9 2470.71 1104.8C2465.34 1094.7 2457.82 1086.97 2448.15 1081.6C2438.69 1076.01 2427.95 1073.22 2415.91 1073.22C2403.88 1073.22 2393.03 1076.01 2383.36 1081.6C2373.9 1086.97 2366.38 1094.7 2360.79 1104.8C2355.42 1114.9 2352.74 1126.4 2352.74 1139.29C2352.74 1152.19 2355.42 1163.68 2360.79 1173.78C2366.38 1183.88 2373.9 1191.73 2383.36 1197.31C2393.03 1202.68 2403.88 1205.37 2415.91 1205.37Z" fill="#777B7D"/>
<path d="M2594.15 1225.68C2580.39 1225.68 2567.18 1223.74 2554.5 1219.88C2542.04 1215.79 2532.26 1210.74 2525.17 1204.73L2535.48 1186.68C2542.57 1192.26 2551.49 1196.88 2562.24 1200.54C2572.98 1203.97 2584.15 1205.69 2595.76 1205.69C2611.23 1205.69 2622.62 1203.33 2629.93 1198.6C2637.45 1193.66 2641.21 1186.78 2641.21 1177.97C2641.21 1171.74 2639.17 1166.91 2635.08 1163.47C2631 1159.81 2625.84 1157.13 2619.61 1155.41C2613.38 1153.48 2605.11 1151.65 2594.79 1149.93C2581.04 1147.35 2569.97 1144.77 2561.59 1142.19C2553.21 1139.4 2546.01 1134.78 2540 1128.33C2534.19 1121.89 2531.29 1112.97 2531.29 1101.58C2531.29 1087.4 2537.2 1075.79 2549.02 1066.77C2560.84 1057.74 2577.28 1053.23 2598.34 1053.23C2609.3 1053.23 2620.26 1054.73 2631.22 1057.74C2642.17 1060.54 2651.2 1064.3 2658.29 1069.02L2648.3 1087.4C2634.33 1077.73 2617.68 1072.89 2598.34 1072.89C2583.73 1072.89 2572.66 1075.47 2565.14 1080.63C2557.83 1085.79 2554.18 1092.56 2554.18 1100.94C2554.18 1107.38 2556.22 1112.54 2560.3 1116.41C2564.6 1120.28 2569.86 1123.18 2576.1 1125.11C2582.33 1126.83 2590.92 1128.66 2601.88 1130.59C2615.42 1133.17 2626.27 1135.75 2634.44 1138.33C2642.6 1140.9 2649.59 1145.31 2655.39 1151.54C2661.19 1157.77 2664.09 1166.37 2664.09 1177.33C2664.09 1192.16 2657.86 1203.97 2645.4 1212.78C2633.15 1221.38 2616.07 1225.68 2594.15 1225.68Z" fill="#777B7D"/>
<path d="M2795.69 1213.75C2791.39 1217.62 2786.02 1220.63 2779.57 1222.78C2773.34 1224.71 2766.78 1225.68 2759.91 1225.68C2744.01 1225.68 2731.76 1221.38 2723.16 1212.78C2714.57 1204.19 2710.27 1192.05 2710.27 1176.36V1073.86H2679.97V1054.52H2710.27V1017.45H2733.15V1054.52H2784.73V1073.86H2733.15V1175.07C2733.15 1185.17 2735.63 1192.91 2740.57 1198.28C2745.73 1203.44 2753.03 1206.02 2762.49 1206.02C2767.21 1206.02 2771.73 1205.26 2776.02 1203.76C2780.54 1202.25 2784.41 1200.11 2787.63 1197.31L2795.69 1213.75Z" fill="#777B7D"/>
<path d="M2990.13 1054.52V1224.07H2968.21V1193.12C2962.2 1203.44 2953.92 1211.5 2943.4 1217.3C2932.87 1222.88 2920.83 1225.68 2907.29 1225.68C2885.16 1225.68 2867.65 1219.55 2854.75 1207.3C2842.08 1194.84 2835.74 1176.68 2835.74 1152.83V1054.52H2858.62V1150.57C2858.62 1168.41 2863.03 1181.95 2871.84 1191.19C2880.65 1200.43 2893.22 1205.05 2909.55 1205.05C2927.39 1205.05 2941.46 1199.68 2951.78 1188.93C2962.09 1177.97 2967.25 1162.82 2967.25 1143.48V1054.52H2990.13Z" fill="#777B7D"/>
<path d="M3076.15 1087.72C3081.52 1076.33 3089.47 1067.74 3100 1061.93C3110.74 1056.13 3123.96 1053.23 3139.65 1053.23V1075.47L3134.17 1075.15C3116.33 1075.15 3102.36 1080.63 3092.26 1091.59C3082.16 1102.55 3077.11 1117.91 3077.11 1137.68V1224.07H3054.23V1054.52H3076.15V1087.72Z" fill="#777B7D"/>
<path d="M3240.08 1053.23C3262.21 1053.23 3279.19 1058.82 3291.01 1069.99C3302.82 1080.95 3308.73 1097.28 3308.73 1118.99V1224.07H3286.82V1197.63C3281.66 1206.45 3274.03 1213.32 3263.93 1218.26C3254.05 1223.21 3242.23 1225.68 3228.47 1225.68C3209.56 1225.68 3194.52 1221.17 3183.35 1212.14C3172.17 1203.11 3166.59 1191.19 3166.59 1176.36C3166.59 1161.96 3171.74 1150.36 3182.06 1141.55C3192.59 1132.74 3209.24 1128.33 3232.02 1128.33H3285.85V1118.02C3285.85 1103.41 3281.77 1092.34 3273.6 1084.82C3265.43 1077.08 3253.51 1073.22 3237.82 1073.22C3227.08 1073.22 3216.76 1075.04 3206.88 1078.69C3196.99 1082.13 3188.5 1086.97 3181.41 1093.2L3171.1 1076.12C3179.69 1068.81 3190.01 1063.22 3202.04 1059.36C3214.08 1055.27 3226.75 1053.23 3240.08 1053.23ZM3232.02 1207.63C3244.91 1207.63 3255.98 1204.73 3265.22 1198.92C3274.46 1192.91 3281.34 1184.31 3285.85 1173.14V1145.42H3232.66C3203.65 1145.42 3189.15 1155.52 3189.15 1175.72C3189.15 1185.6 3192.91 1193.44 3200.43 1199.25C3207.95 1204.83 3218.48 1207.63 3232.02 1207.63Z" fill="#777B7D"/>
</svg>
