<svg width="1010" height="291" viewBox="0 0 1010 291" fill="none" xmlns="http://www.w3.org/2000/svg">
<path d="M330.598 45.7329H251.572V290.366H330.598V45.7329Z" fill="#FF7324" stroke="#FF7324"/>
<path d="M360 60.8511H339.467V160.516H360V60.8511Z" fill="#FF7324" stroke="#FF7324"/>
<path d="M90.8103 45.7329H43.2393V179.897H90.8103V45.7329Z" fill="#FF7324" stroke="#FF7324"/>
<path d="M254.333 222.111H45.8966V290.366H254.333V222.111Z" fill="#FF7324" stroke="#FF7324"/>
<path d="M254.333 45.7329H90.8104V109.225H254.333V45.7329Z" fill="#FF7324" stroke="#FF7324"/>
<path d="M72.4686 179.828H64.7731V210.03H72.4686V179.828Z" fill="#FF7324" stroke="#FF7324"/>
<path d="M339.467 76.5559H330.408V144.812H339.467V76.5559Z" fill="#FF7324" stroke="#FF7324"/>
<path d="M296.52 1H285.65V141.308H296.52V1Z" fill="#FF7324" stroke="#FF7324"/>
<path d="M47.2942 290.366H1L45.8966 222.111L47.2942 290.366Z" fill="#FF7324" stroke="#FF7324"/>
<path d="M124.336 109.208L90.8103 179.897H43.2393L28.9869 45.7329H117.728L124.336 109.208Z" fill="#FF7324" stroke="#FF7324"/>
<path d="M127.097 109.208L254.333 129.866L253.625 94.1938L127.097 109.208Z" fill="#FF7324" stroke="#FF7324"/>
<path d="M429.582 180.276C421.02 177.289 414.404 173.337 409.735 168.422L414.952 158.175C419.507 162.731 425.537 166.418 433.079 169.216C440.621 172.033 448.409 173.432 456.424 173.432C467.671 173.432 476.12 171.371 481.734 167.231C487.367 163.09 490.184 157.74 490.184 151.16C490.184 146.131 488.652 142.123 485.609 139.117C482.547 136.13 478.823 133.823 474.381 132.197C469.958 130.59 463.777 128.813 455.876 126.904C446.424 124.503 438.882 122.215 433.249 119.984C427.617 117.772 422.796 114.388 418.789 109.831C414.782 105.275 412.778 99.1116 412.778 91.3223C412.778 84.9698 414.461 79.2034 417.806 73.9853C421.152 68.7861 426.312 64.6268 433.249 61.5072C440.187 58.3877 448.806 56.8374 459.108 56.8374C466.291 56.8374 473.323 57.8205 480.203 59.8057C487.084 61.7719 493.038 64.5133 498.066 67.9731L493.567 78.5606C488.293 75.0819 482.679 72.4917 476.687 70.7524C470.695 69.013 464.835 68.1433 459.089 68.1433C448.069 68.1433 439.79 70.2797 434.214 74.5147C428.637 78.7686 425.859 84.2514 425.859 90.9442C425.859 95.9732 427.39 100.019 430.433 103.063C433.495 106.107 437.314 108.451 441.926 110.077C446.538 111.684 452.719 113.461 460.507 115.371C469.731 117.64 477.179 119.89 482.868 122.102C488.558 124.314 493.378 127.679 497.329 132.16C501.279 136.64 503.245 142.728 503.245 150.385C503.245 156.738 501.544 162.504 498.123 167.722C494.701 172.921 489.465 177.062 482.415 180.125C475.345 183.187 466.669 184.7 456.367 184.7C447.105 184.757 438.145 183.263 429.582 180.276Z" fill="#777B7D"/>
<path d="M614.637 89.2048V183.679H602.426V166.437C599.08 172.184 594.468 176.646 588.608 179.822C582.749 182.998 576.038 184.587 568.496 184.587C556.172 184.587 546.437 181.146 539.311 174.264C532.185 167.382 528.631 157.286 528.631 143.995V89.2048H541.39V142.728C541.39 152.673 543.848 160.216 548.762 165.359C553.677 170.501 560.671 173.073 569.763 173.073C579.705 173.073 587.55 170.048 593.296 163.998C599.043 157.948 601.916 149.534 601.916 138.758V89.2048H614.637Z" fill="#777B7D"/>
<path d="M732.607 140.403H653.595C654.313 150.215 658.094 158.156 664.898 164.206C671.722 170.256 680.342 173.281 690.757 173.281C696.617 173.281 702.004 172.241 706.919 170.142C711.833 168.044 716.067 164.962 719.678 160.897L726.861 169.159C722.664 174.188 717.428 178.026 711.153 180.654C704.858 183.282 697.959 184.605 690.417 184.605C680.72 184.605 672.138 182.545 664.653 178.404C657.167 174.283 651.327 168.554 647.149 161.256C642.953 153.958 640.855 145.696 640.855 136.47C640.855 127.244 642.858 118.982 646.866 111.684C650.873 104.386 656.392 98.6957 663.386 94.6309C670.38 90.566 678.263 88.5242 686.995 88.5242C695.728 88.5242 703.573 90.566 710.529 94.6309C717.466 98.6957 722.91 104.368 726.861 111.609C730.811 118.85 732.777 127.15 732.777 136.489L732.607 140.403ZM664.105 108.168C657.942 113.972 654.427 121.553 653.595 130.893H720.566C719.734 121.553 716.219 113.991 710.056 108.168C703.894 102.364 696.201 99.4519 686.977 99.4519C677.903 99.4519 670.267 102.345 664.105 108.168Z" fill="#777B7D"/>
<path d="M758.825 50.4094H771.584V183.679H758.825V50.4094Z" fill="#777B7D"/>
<path d="M806.95 65.8558C805.155 64.0597 804.266 61.9044 804.266 59.3899C804.266 56.9888 805.173 54.8902 806.95 53.113C808.746 51.3169 810.958 50.4094 813.604 50.4094C816.231 50.4094 818.443 51.2791 820.239 53.0185C822.034 54.7578 822.923 56.8186 822.923 59.2197C822.923 61.8477 822.034 64.0597 820.239 65.8747C818.443 67.6708 816.231 68.5594 813.604 68.5594C810.958 68.5594 808.746 67.6519 806.95 65.8558ZM807.139 89.2049H819.898V183.679H807.139V89.2049Z" fill="#777B7D"/>
<path d="M937.679 140.403H858.667C859.386 150.215 863.166 158.156 869.971 164.206C876.795 170.256 885.414 173.281 895.829 173.281C901.689 173.281 907.076 172.241 911.991 170.142C916.906 168.044 921.14 164.962 924.75 160.897L931.933 169.159C927.737 174.188 922.501 178.026 916.225 180.654C909.931 183.282 903.031 184.605 895.489 184.605C885.792 184.605 877.211 182.545 869.725 178.404C862.24 174.283 856.399 168.554 852.221 161.256C848.025 153.958 845.927 145.696 845.927 136.47C845.927 127.244 847.931 118.982 851.938 111.684C855.945 104.386 861.465 98.6957 868.459 94.6309C875.453 90.566 883.335 88.5242 892.068 88.5242C900.801 88.5242 908.645 90.566 915.601 94.6309C922.538 98.6957 927.982 104.368 931.933 111.609C935.884 118.85 937.849 127.15 937.849 136.489L937.679 140.403ZM869.177 108.168C863.015 113.972 859.499 121.553 858.667 130.893H925.639C924.807 121.553 921.291 113.991 915.129 108.168C908.967 102.364 901.273 99.4519 892.049 99.4519C882.976 99.4519 875.339 102.345 869.177 108.168Z" fill="#777B7D"/>
<path d="M989.491 93.3454C995.407 90.1124 1002.74 88.5054 1011.49 88.5054V100.908L1008.43 100.719C998.488 100.719 990.719 103.782 985.087 109.888C979.454 115.995 976.656 124.559 976.656 135.563V183.698H963.897V89.2049H976.108V107.714C979.095 101.362 983.555 96.5783 989.491 93.3454Z" fill="#777B7D"/>
<path d="M440.47 240.02L438.504 255.901H449.241V260.06H437.975L436.236 274.429H432.153L433.892 260.06H418.392L416.578 274.429H412.495L414.234 260.06H403.497V255.901H414.763L416.729 240.02H405.917V235.86H417.258L418.997 221.491H423.156L421.341 235.86H436.917L438.656 221.491H442.738L440.999 235.86H451.66V240.02H440.47ZM436.387 240.02H420.887L418.846 255.901H434.421L436.387 240.02Z" fill="#777B7D"/>
<path d="M467.349 272.236C464.249 270.515 461.811 268.114 460.053 265.013C458.295 261.913 457.407 258.415 457.407 254.539C457.407 250.664 458.295 247.185 460.053 244.103C461.811 241.022 464.249 238.639 467.349 236.919C470.449 235.198 473.965 234.348 477.897 234.348C481.318 234.348 484.38 235.009 487.084 236.352C489.787 237.694 491.904 239.641 493.473 242.213L489.465 244.935C488.161 242.969 486.498 241.494 484.475 240.511C482.452 239.528 480.26 239.036 477.897 239.036C475.024 239.036 472.434 239.679 470.147 240.965C467.86 242.25 466.064 244.084 464.779 246.448C463.493 248.811 462.851 251.514 462.851 254.539C462.851 257.621 463.493 260.325 464.779 262.669C466.064 265.013 467.86 266.828 470.147 268.114C472.434 269.4 475.024 270.043 477.897 270.043C480.26 270.043 482.452 269.57 484.475 268.606C486.498 267.641 488.161 266.186 489.465 264.219L493.473 266.942C491.904 269.513 489.768 271.46 487.046 272.803C484.324 274.145 481.28 274.807 477.897 274.807C473.965 274.807 470.449 273.956 467.349 272.236Z" fill="#777B7D"/>
<path d="M509.199 272.198C506.118 270.458 503.699 268.057 501.941 264.976C500.183 261.894 499.295 258.415 499.295 254.539C499.295 250.664 500.183 247.185 501.941 244.103C503.699 241.022 506.118 238.639 509.199 236.919C512.28 235.198 515.721 234.348 519.558 234.348C523.395 234.348 526.835 235.198 529.916 236.919C532.997 238.639 535.398 241.022 537.137 244.103C538.876 247.185 539.746 250.664 539.746 254.539C539.746 258.415 538.876 261.894 537.137 264.976C535.398 268.057 532.997 270.458 529.916 272.198C526.835 273.937 523.395 274.807 519.558 274.807C515.721 274.807 512.28 273.937 509.199 272.198ZM527.157 268.114C529.406 266.828 531.145 264.995 532.411 262.631C533.678 260.268 534.302 257.564 534.302 254.539C534.302 251.514 533.678 248.811 532.411 246.448C531.145 244.084 529.406 242.25 527.157 240.965C524.907 239.679 522.374 239.036 519.558 239.036C516.741 239.036 514.209 239.679 511.959 240.965C509.71 242.25 507.952 244.084 506.666 246.448C505.381 248.811 504.738 251.514 504.738 254.539C504.738 257.564 505.381 260.268 506.666 262.631C507.952 264.995 509.71 266.828 511.959 268.114C514.209 269.4 516.741 270.043 519.558 270.043C522.374 270.043 524.907 269.4 527.157 268.114Z" fill="#777B7D"/>
<path d="M552.108 273.408C549.159 272.481 546.853 271.309 545.19 269.891L547.609 265.656C549.272 266.961 551.371 268.038 553.885 268.87C556.399 269.702 559.026 270.118 561.748 270.118C565.377 270.118 568.062 269.551 569.801 268.417C571.54 267.282 572.409 265.675 572.409 263.614C572.409 262.159 571.936 261.005 570.972 260.174C570.008 259.342 568.799 258.718 567.343 258.283C565.888 257.848 563.941 257.432 561.521 257.035C558.289 256.43 555.699 255.806 553.733 255.182C551.768 254.558 550.085 253.481 548.705 251.968C547.326 250.456 546.626 248.357 546.626 245.691C546.626 242.364 548.006 239.641 550.785 237.524C553.563 235.406 557.419 234.348 562.353 234.348C564.924 234.348 567.494 234.688 570.065 235.369C572.636 236.049 574.753 236.938 576.416 238.053L574.072 242.364C570.802 240.095 566.89 238.961 562.353 238.961C558.932 238.961 556.342 239.566 554.603 240.776C552.864 241.986 551.994 243.574 551.994 245.54C551.994 247.053 552.486 248.263 553.469 249.17C554.452 250.078 555.68 250.739 557.136 251.174C558.591 251.609 560.614 252.044 563.185 252.498C566.36 253.103 568.912 253.708 570.821 254.313C572.73 254.918 574.375 255.957 575.736 257.413C577.097 258.869 577.777 260.892 577.777 263.463C577.777 266.942 576.322 269.702 573.43 271.744C570.538 273.786 566.511 274.807 561.37 274.807C558.138 274.807 555.057 274.353 552.108 273.408Z" fill="#777B7D"/>
<path d="M608.626 272.009C607.624 272.916 606.377 273.616 604.883 274.089C603.39 274.561 601.84 274.807 600.233 274.807C596.51 274.807 593.636 273.805 591.614 271.782C589.591 269.759 588.59 266.923 588.59 263.236V239.188H581.482V234.65H588.59V225.953H593.958V234.65H606.055V239.188H593.958V262.934C593.958 265.297 594.544 267.112 595.735 268.341C596.925 269.57 598.627 270.194 600.838 270.194C601.954 270.194 603.012 270.024 604.052 269.664C605.091 269.305 605.98 268.814 606.736 268.152L608.626 272.009Z" fill="#777B7D"/>
<path d="M654.219 234.65V274.429H649.077V267.169C647.66 269.589 645.732 271.46 643.255 272.803C640.779 274.145 637.963 274.807 634.787 274.807C629.589 274.807 625.506 273.351 622.5 270.458C619.495 267.566 618.002 263.312 618.002 257.716V234.65H623.37V257.186C623.37 261.365 624.41 264.541 626.47 266.715C628.53 268.889 631.479 269.967 635.316 269.967C639.494 269.967 642.802 268.7 645.221 266.148C647.641 263.595 648.85 260.06 648.85 255.523V234.65H654.219V234.65Z" fill="#777B7D"/>
<path d="M680.039 236.39C682.534 235.028 685.616 234.348 689.302 234.348V239.566L688.016 239.49C683.839 239.49 680.55 240.776 678.187 243.347C675.824 245.918 674.633 249.529 674.633 254.161V274.429H669.265V234.65H674.407V242.44C675.673 239.774 677.544 237.751 680.039 236.39Z" fill="#777B7D"/>
<path d="M724.762 238.242C727.541 240.832 728.921 244.689 728.921 249.775V274.429H723.78V268.228C722.57 270.288 720.793 271.914 718.449 273.068C716.105 274.221 713.327 274.807 710.094 274.807C705.652 274.807 702.136 273.748 699.509 271.631C696.882 269.513 695.577 266.715 695.577 263.236C695.577 259.852 696.806 257.13 699.244 255.069C701.683 253.008 705.577 251.968 710.926 251.968H723.553V249.548C723.553 246.126 722.589 243.517 720.68 241.721C718.77 239.925 715.973 239.036 712.287 239.036C709.773 239.036 707.353 239.452 705.028 240.284C702.703 241.116 700.719 242.269 699.055 243.725L696.636 239.717C698.658 237.997 701.078 236.673 703.894 235.747C706.711 234.82 709.697 234.348 712.816 234.348C717.995 234.348 721.984 235.652 724.762 238.242ZM718.714 268.492C720.888 267.112 722.494 265.108 723.553 262.48V255.976H711.077C704.272 255.976 700.87 258.34 700.87 263.085C700.87 265.411 701.758 267.225 703.516 268.568C705.274 269.91 707.75 270.572 710.926 270.572C713.95 270.572 716.54 269.891 718.714 268.492Z" fill="#777B7D"/>
</svg>
