<svg width="2314" height="1282" viewBox="0 0 2314 1282" fill="none" xmlns="http://www.w3.org/2000/svg">
<path opacity="0.7" d="M143.353 993.948C143.353 993.948 230.86 1199.83 510.907 1261.02C790.955 1322.22 1021.25 1207.25 1247.52 1160.73C1366.02 1136.36 1488.84 1165.23 1609.91 1160.76C1997.06 1146.47 2217.37 803.483 2106.42 581.309C2010.4 388.949 1793 269.692 1435.73 206.879C1078.51 144.066 830.073 90.1208 467.728 226.194C105.472 362.24 47.5019 725.461 143.353 993.948Z" fill="#FFC700"/>
<path opacity="0.7" d="M143.353 993.948C143.353 993.948 230.86 1199.83 510.907 1261.02C790.955 1322.22 1021.25 1207.25 1247.52 1160.73C1366.02 1136.36 1488.84 1165.23 1609.91 1160.76C1997.06 1146.47 2217.37 803.483 2106.42 581.309C2010.4 388.949 1793 269.692 1435.73 206.879C1078.51 144.066 830.073 90.1208 467.728 226.194C105.472 362.24 47.5019 725.461 143.353 993.948Z" fill="white"/>
<path d="M1105.39 208.78C1105.39 208.78 1105.42 209.085 1105.45 209.636C1105.94 215.719 1108.53 252.89 1100.04 263.528C1090.77 275.114 1069.13 288.258 1035.93 295.197C1002.74 302.136 978.77 306.019 967.948 330.718C957.127 355.448 948.629 434.988 948.629 434.988C948.629 434.988 958.686 444.25 973.359 448.132C988.032 451.984 997.294 450.456 1002.7 451.984C1008.12 453.513 1008.12 453.543 1008.12 453.543L1021.26 428.813L1044.43 550.874L1043.67 594.128C1043.67 594.128 1005.82 674.463 992.678 744.771C979.534 815.079 975.682 1029.82 974.918 1063.02C974.154 1096.25 971.831 1127.12 971.831 1127.12L971.066 1258.05H1365.04C1365.04 1258.05 1363.48 948.695 1348.8 849.805C1334.13 750.915 1283.91 602.596 1280.82 594.098C1277.73 585.6 1276.97 581.748 1276.97 578.661C1276.97 575.573 1276.2 553.166 1274.64 548.52C1273.08 543.874 1273.08 539.258 1273.08 539.258C1273.08 539.258 1286.23 505.265 1286.23 487.505C1286.23 469.745 1286.23 453.513 1286.23 453.513L1295.49 469.745C1295.49 469.745 1304.75 477.478 1324.07 468.98C1343.39 460.482 1355.74 438.84 1361.92 434.224C1368.09 429.608 1370.42 426.49 1370.42 426.49C1370.42 426.49 1354.98 367.003 1341.07 333.806C1327.16 300.578 1273.85 288.992 1256.09 282.817C1238.33 276.642 1204.34 265.821 1198.93 255.794C1193.51 245.737 1194.92 208.78 1194.92 208.78H1105.39V208.78Z" fill="#263238" stroke="#263238" stroke-miterlimit="10"/>
<path d="M1286.2 453.543L1295.46 469.775C1295.46 469.775 1304.72 477.509 1324.04 469.011C1343.36 460.512 1355.71 438.87 1361.89 434.254C1368.06 429.638 1370.38 426.52 1370.38 426.52C1370.38 426.52 1354.95 367.033 1341.04 333.836C1327.13 300.608 1273.82 289.022 1256.06 282.847C1238.3 276.673 1204.31 265.851 1198.89 255.825C1193.48 245.768 1194.89 208.81 1194.89 208.81H1105.39C1105.39 208.81 1105.42 209.116 1105.45 209.666C1105.94 215.749 1108.53 252.921 1100.04 263.559C1090.77 275.144 1069.13 288.289 1035.93 295.228C1002.74 302.167 978.77 306.049 967.948 330.748C957.127 355.479 948.629 435.018 948.629 435.018C948.629 435.018 958.686 444.281 973.359 448.163C988.032 452.014 997.294 450.486 1002.7 452.014C1008.12 453.543 1008.12 453.573 1008.12 453.573L1021.26 428.843L1044.43 550.904C1044.43 550.904 1182.57 578.936 1273.08 539.319C1273.08 539.319 1286.23 505.326 1286.23 487.566C1286.2 469.775 1286.2 453.543 1286.2 453.543Z" fill="white" stroke="#263238" stroke-miterlimit="10"/>
<path d="M1149.5 316.809C1202.87 318.826 1235.55 296.878 1251.84 281.349C1233.38 275.021 1203.94 265.056 1198.93 255.763C1193.51 245.706 1194.92 208.749 1194.92 208.749H1105.39C1105.39 208.749 1105.42 209.054 1105.45 209.604C1105.94 215.688 1108.53 252.859 1100.04 263.497C1092.67 272.729 1077.45 282.908 1054.79 290.183C1066.32 299.537 1093.4 314.7 1149.5 316.809Z" fill="#858585" stroke="#263238" stroke-miterlimit="10" stroke-linecap="round" stroke-linejoin="round"/>
<path d="M1150.17 227.029C1174.9 227.029 1194.95 218.858 1194.95 208.779C1194.95 198.7 1174.9 190.53 1150.17 190.53C1125.44 190.53 1105.39 198.7 1105.39 208.779C1105.39 218.858 1125.44 227.029 1150.17 227.029Z" fill="#A3A3A3" stroke="#263238" stroke-miterlimit="10" stroke-linecap="round" stroke-linejoin="round"/>
<path d="M1084.14 559.463C1084.14 559.463 1079.03 565.577 1080.07 576.796C1081.08 588.015 1081.08 609.413 1081.08 609.413C1081.08 609.413 1075.98 669.541 1077.02 721.508" stroke="#808080" stroke-miterlimit="10"/>
<path d="M1069.9 599.202C1069.9 599.202 1050.55 711.297 1057.67 764.273" stroke="#808080" stroke-miterlimit="10"/>
<path d="M1015.64 751.343C1015.3 754.308 1015.05 757.273 1014.87 760.208" stroke="#808080" stroke-miterlimit="10"/>
<path d="M1062.74 610.421C1062.74 610.421 1029.21 674.371 1018.08 734.714" stroke="#808080" stroke-miterlimit="10"/>
<path d="M1213.29 768.951C1213.11 773.322 1212.86 777.54 1212.56 781.576" stroke="#808080" stroke-miterlimit="10"/>
<path d="M1203.36 569.643V605.316C1203.36 605.316 1213.81 687.332 1213.63 751.251" stroke="#808080" stroke-miterlimit="10"/>
<path d="M1248.2 556.406L1252.27 595.137C1252.27 595.137 1278.77 685.834 1278.77 759.199" stroke="#808080" stroke-miterlimit="10"/>
<path d="M1308.39 732.268C1309.64 740.613 1310.35 748.317 1310.35 755.072" stroke="#808080" stroke-miterlimit="10"/>
<path d="M1261.44 550.292C1261.44 553.349 1266.54 590.032 1266.54 590.032C1266.54 590.032 1291.91 654.96 1304.05 709.341" stroke="#808080" stroke-miterlimit="10"/>
<path d="M1740.71 233.82C1691.83 233.82 1652.06 273.59 1652.06 322.469V1256.34H1679.58V322.469C1679.58 288.752 1707 261.332 1740.71 261.332H2310.82V233.82H1740.71V233.82Z" fill="white" stroke="#263238" stroke-miterlimit="10"/>
<path d="M2203.01 415.831L2185.53 403.756C2161.07 386.851 2141.3 362.091 2128.61 332.409L2114.03 298.386H2111.83H2093.06H2090.86L2076.28 332.409C2063.56 362.06 2043.78 386.821 2019.33 403.756L2001.84 415.831C1992.06 422.586 1986.07 434.875 1986.07 448.111H2093.03H2111.8H2218.76C2218.79 434.875 2212.8 422.586 2203.01 415.831ZM2108.95 433.836H2095.96H2008.93C2008.93 423.106 2026.02 413.171 2032.81 407.699L2044.91 397.917C2061.85 384.253 2075.54 364.2 2084.35 340.204L2094.43 312.692H2095.96H2108.95H2110.48L2120.57 340.204C2129.37 364.2 2143.07 384.223 2160 397.917L2172.11 407.699C2178.86 413.171 2195.65 423.106 2195.65 433.836H2108.95Z" fill="white" stroke="#263238" stroke-miterlimit="10" stroke-linejoin="round"/>
<path d="M2102.32 297.866V272.892C2102.32 272.892 2116.6 262.193 2116.6 246.725C2116.6 231.257 2104.71 225.327 2091.62 230.095" stroke="#263238" stroke-miterlimit="10" stroke-linecap="round" stroke-linejoin="round"/>
<path d="M2068.73 339.531L2095.66 416.961L2128.58 332.439C2128.58 332.439 2184.86 390.03 2203.38 400.149C2221.91 410.267 2238.72 423.717 2243.76 450.648C2248.81 477.579 2275.74 746.889 2275.74 746.889L2213.47 750.252L2219.09 902.545H1967.73L1982.89 743.496H1923.98C1923.98 743.496 1961 452.299 1971.12 432.123C1981.24 411.948 2068.73 339.531 2068.73 339.531Z" fill="#263238" stroke="#263238" stroke-miterlimit="10" stroke-linejoin="round"/>
<path d="M2043.48 358.056L2058.64 440.53L2090.61 386.668L2070.41 329.443L2043.48 358.056Z" fill="white" stroke="#263238" stroke-miterlimit="10" stroke-linejoin="round"/>
<path d="M2128.61 332.409L2100.7 388.349L2129.31 443.893L2152.88 351.3L2128.61 332.409Z" fill="white" stroke="#263238" stroke-miterlimit="10" stroke-linejoin="round"/>
<path d="M2213.5 750.221L2200.02 494.392" stroke="#808080" stroke-miterlimit="10"/>
<path d="M1982.89 743.496L2006.46 494.392" stroke="#263238" stroke-miterlimit="10" stroke-linejoin="round"/>
<path d="M2131.92 415.831L2114.44 403.756C2089.98 386.851 2070.21 362.091 2057.49 332.409L2042.91 298.386H2040.71H2021.94H2019.8L2005.22 332.409C1992.5 362.06 1972.75 386.821 1948.3 403.756L1930.81 415.831C1921.03 422.586 1915.04 434.875 1915.04 448.111H2022H2040.77H2147.73C2147.7 434.875 2141.71 422.586 2131.92 415.831ZM2037.86 433.836H2024.87H1937.87C1937.87 423.106 1954.96 413.171 1961.75 407.699L1973.85 397.917C1990.79 384.253 2004.48 364.2 2013.29 340.204L2023.37 312.692H2024.9H2037.89H2039.42L2049.51 340.204C2058.31 364.2 2072.01 384.223 2088.94 397.917L2101.05 407.699C2107.8 413.171 2124.59 423.106 2124.59 433.836H2037.86Z" fill="white" stroke="#263238" stroke-miterlimit="10" stroke-linejoin="round"/>
<path d="M2031.23 297.866V272.892C2031.23 272.892 2045.51 262.193 2045.51 246.725C2045.51 231.257 2033.62 225.327 2020.53 230.095" stroke="#263238" stroke-miterlimit="10" stroke-linecap="round" stroke-linejoin="round"/>
<path d="M1997.67 339.531L2024.6 416.961L2057.52 332.439C2057.52 332.439 2113.8 390.03 2132.32 400.149C2150.85 410.236 2167.66 423.717 2172.7 450.648C2177.75 477.579 2204.68 746.889 2204.68 746.889L2142.41 750.252L2148.03 902.545H1896.67L1911.83 743.496H1852.89C1852.89 743.496 1889.91 452.299 1900.03 432.123C1910.15 411.918 1997.67 339.531 1997.67 339.531Z" fill="#FF7324" stroke="#263238" stroke-miterlimit="10" stroke-linejoin="round"/>
<path d="M1972.42 358.056L1987.55 440.53L2019.55 386.668L1999.35 329.443L1972.42 358.056Z" fill="white" stroke="#263238" stroke-miterlimit="10" stroke-linejoin="round"/>
<path d="M2057.52 332.409L2029.64 388.349L2058.25 443.893L2081.82 351.3L2057.52 332.409Z" fill="white" stroke="#263238" stroke-miterlimit="10" stroke-linejoin="round"/>
<path d="M2142.41 750.221L2128.96 494.392" stroke="#263238" stroke-miterlimit="10" stroke-linejoin="round"/>
<path d="M1911.8 743.496L1935.37 494.392" stroke="#263238" stroke-miterlimit="10" stroke-linejoin="round"/>
<path d="M1984.32 426.363L1965.86 413.585C1940.03 395.733 1919.15 369.566 1905.73 338.264L1890.32 302.346H1888H1868.19H1865.87L1850.46 338.264C1837.04 369.597 1816.16 395.733 1790.33 413.585L1771.87 426.363C1761.54 433.485 1755.21 446.477 1755.21 460.477H1868.16H1887.97H2000.92C2000.98 446.477 1994.65 433.516 1984.32 426.363ZM1884.97 445.377H1871.25H1779.36C1779.36 434.036 1797.42 423.55 1804.58 417.773L1817.35 407.441C1835.24 392.982 1849.7 371.828 1858.99 346.487L1869.66 317.416H1871.25H1884.97H1886.56L1897.23 346.487C1906.52 371.828 1920.98 392.982 1938.86 407.441L1951.64 417.773C1958.8 423.55 1976.49 434.036 1976.49 445.377H1884.97Z" fill="white" stroke="#263238" stroke-miterlimit="10" stroke-linejoin="round"/>
<path d="M1877.97 301.765V275.384C1877.97 275.384 1893.04 264.074 1893.04 247.75C1893.04 231.426 1880.48 225.16 1866.69 230.173" stroke="#263238" stroke-miterlimit="10" stroke-linecap="round" stroke-linejoin="round"/>
<path d="M1807.76 386.562C1807.76 386.562 1835.76 418.843 1870.94 419.393C1908.3 419.974 1952.19 387.296 1952.19 387.296C1952.19 387.296 1965.15 399.096 1984.72 409.764C2004.28 420.433 2017.12 436.023 2027.39 463.106C2038.82 493.278 2064.07 575.293 2064.07 575.293L1991.38 578.839L2001.35 743.696H1759.58L1775.96 575.752H1705.38C1705.38 575.752 1728.77 464.879 1739.43 443.543C1750.07 422.206 1807.76 386.562 1807.76 386.562Z" fill="white" stroke="#263238" stroke-miterlimit="10" stroke-linejoin="round"/>
<path d="M1775.93 575.753L1779.63 487.623" stroke="#263238" stroke-miterlimit="10" stroke-linejoin="round"/>
<path d="M1991.35 578.839L1985.67 493.247" stroke="#263238" stroke-miterlimit="10" stroke-linejoin="round"/>
<path d="M906.841 1257.25H2313" stroke="#263238" stroke-miterlimit="10" stroke-linecap="round" stroke-linejoin="round"/>
<path d="M281.315 10.354V510.947H13.4108V10.354H281.315ZM290.669 1H281.315H13.4108H4.05676V10.354V510.947V520.301H13.4108H281.315H290.669V510.947V10.354V1Z" stroke="#A2A7A9" stroke-miterlimit="10"/>
<path d="M29.3675 104.873C32.0576 106.89 34.931 108.602 37.8351 110.161C43.7043 113.218 49.818 115.724 56.0234 117.895C59.1414 118.965 62.2594 119.943 65.4386 120.829C68.6177 121.655 71.7663 122.572 75.1594 122.786V122.083C72.0108 121.777 68.8317 120.738 65.7442 119.821C62.6262 118.842 59.5694 117.742 56.5125 116.58C50.4294 114.227 44.499 111.537 38.8744 108.327C36.0926 106.707 33.372 104.934 30.896 102.947C28.4505 100.96 26.1272 98.6977 24.9045 96.0688L24.4765 95.0906C24.3848 94.7543 24.3543 94.4181 24.2626 94.0818C24.0486 93.4093 24.2014 92.7674 24.2014 92.1254C24.4765 90.8415 25.0268 89.6188 25.9744 88.5489C27.8391 86.3785 30.5291 84.6667 33.372 83.3522C34.7476 82.6186 36.2455 82.0378 37.7128 81.457C39.1495 80.815 40.7391 80.387 42.2675 79.8674C45.3244 78.8586 48.3813 77.8193 51.5298 77.1773L56.2068 76.0463L60.945 75.2821C64.0936 74.6707 67.3032 74.5179 70.5129 74.1816C83.3212 73.2951 96.2823 74.7013 109.305 75.8323C122.357 77.0551 135.563 78.0027 148.83 77.8804C162.066 77.697 175.302 76.5354 188.355 74.3956C201.347 72.103 214.308 69.474 226.933 65.3778L231.64 63.8188C233.199 63.2686 234.758 62.5961 236.287 61.9847C237.846 61.3733 239.374 60.7314 240.872 59.9672C242.37 59.203 243.929 58.5916 245.366 57.7051C248.239 55.9933 251.143 54.1897 253.558 51.7442C254.2 51.194 254.75 50.5215 255.27 49.8184C255.851 49.1764 256.279 48.4122 256.646 47.6174C257.349 46.0279 257.777 44.1632 257.012 42.4208L256.37 42.7264C256.737 44.1326 256.187 45.6916 255.362 46.9144C254.934 47.5563 254.506 48.1677 253.925 48.6873C253.405 49.2376 252.855 49.7878 252.183 50.2464C249.768 52.2027 246.833 53.5783 243.929 54.8622C242.523 55.5653 240.933 56.0238 239.466 56.6046C237.999 57.1854 236.44 57.6745 234.881 58.1025C233.322 58.561 231.824 59.0501 230.265 59.4781L225.557 60.6397C212.994 63.666 200.155 65.6835 187.285 67.4565C180.835 68.1902 174.446 69.1378 167.996 69.5963C161.577 70.2994 155.096 70.6356 148.647 70.9413C135.716 71.5833 122.755 71.0942 109.733 70.2383C102.885 69.8409 95.9767 69.3518 89.007 69.1378C89.221 64.5525 89.0376 59.9672 88.4568 55.3208C88.1205 52.4473 87.5091 49.5738 86.5615 46.6087C86.3781 45.875 85.9501 45.1108 85.675 44.3772C85.3693 43.6741 84.7274 42.6959 84.4523 42.2068C84.4217 42.1151 84.544 42.2068 84.544 42.2068C84.6051 42.1762 84.6357 41.9928 84.8497 41.6871C85.1859 41.0757 85.9196 40.2504 86.8061 39.4862C87.6925 38.722 88.6402 37.9577 89.7101 37.2547C91.7888 35.8179 94.112 34.5035 96.4658 33.3113C101.204 30.8352 106.309 28.9094 111.567 27.4727C116.794 26.0971 122.296 24.9966 127.585 24.8438C132.873 24.6298 138.253 25.5774 143.389 27.3198C153.751 30.7435 163.289 37.0101 171.542 44.4994L172.062 44.0103C168.302 39.7613 164.053 36.0013 159.498 32.6082C154.913 29.2457 149.991 26.2805 144.642 24.049C139.292 21.8786 133.515 20.4419 127.585 20.3196C121.654 20.1668 115.999 20.9616 110.283 22.062C104.597 23.2236 99.003 24.8438 93.5617 27.0753C90.8411 28.2369 88.1816 29.5514 85.6139 31.2938C83.1072 33.0973 80.5395 34.9314 78.6137 38.5997C78.1551 39.5473 77.8189 40.7395 77.7883 42.0845C77.7883 43.4601 78.2774 44.9885 79.0722 46.0279C79.5307 46.731 79.7141 46.8838 80.0504 47.434C80.3255 47.9537 80.6312 48.4122 80.9063 49.0236C82.0374 51.2551 82.8627 53.8535 83.7186 56.4518C85.0025 60.5786 86.1336 64.8582 87.2646 69.1683C81.6094 69.0461 75.9236 69.1378 70.2073 69.7186C66.9059 70.1465 63.5739 70.3911 60.303 71.1248L55.3815 72.0724L50.5211 73.2034C47.2808 73.9676 44.1628 75.1293 41.0447 76.2603C37.9267 77.3302 34.7782 78.5529 31.7824 80.1731C28.7867 81.7321 25.8216 83.6579 23.5289 86.5313C22.3673 87.9375 21.5419 89.7716 21.2668 91.728C21.2668 92.7062 21.1446 93.715 21.4503 94.632C21.5725 95.0906 21.6642 95.5797 21.8171 96.0077L22.3979 97.261C24.0792 100.532 26.7081 102.824 29.3675 104.873Z" fill="#919191"/>
<path d="M166.315 185.88C165.368 183.618 164.267 181.478 163.106 179.369C160.752 175.151 158.215 171.116 155.555 167.111C151.214 160.631 146.629 154.303 141.922 148.097C143.817 144.613 145.62 141.128 147.271 137.521C149.197 133.363 150.97 129.114 152.498 124.804C156.87 125.66 161.455 125.782 165.918 125.11C171.054 124.376 175.975 122.542 180.499 120.249C182.639 119.088 184.809 117.896 186.888 116.612C188.936 115.236 191.015 113.922 192.941 112.363C196.853 109.336 200.583 105.913 203.67 101.816C205.229 99.8294 206.544 97.5062 207.461 95.0302C207.858 93.7769 208.194 92.4624 208.194 91.0868C208.225 89.7418 207.95 88.3356 207.094 87.2046L206.513 87.602C206.911 89.7418 205.841 91.8816 204.587 93.624C203.303 95.397 201.745 97.0171 200.033 98.515C199.177 99.2792 198.321 99.9823 197.404 100.685C196.517 101.388 195.631 102.122 194.653 102.733L191.84 104.751L188.906 106.646L177.045 114.197C173.254 116.642 169.219 118.599 164.879 119.577C160.538 120.555 156.014 120.708 151.551 119.944C147.088 119.149 142.716 117.59 138.651 115.389C130.397 111.048 123.122 104.598 117.13 97.2006L116.55 97.5979C119.117 101.725 122.174 105.515 125.567 109C128.96 112.515 132.69 115.725 136.878 118.415C141.005 121.075 145.59 123.123 150.45 124.376C144.459 132.752 138.895 141.281 133.118 149.595C129.816 154.364 126.576 159.133 123.122 163.596C121.41 165.797 119.576 167.967 117.65 169.526C116.702 170.382 115.694 170.871 114.991 171.146C114.838 171.146 114.654 171.238 114.563 171.238C114.471 171.207 114.379 171.238 114.288 171.238C114.196 171.177 114.104 171.146 113.982 171.146C113.829 171.024 113.676 170.902 113.523 170.779C112.087 169.495 110.772 166.805 109.794 164.268C108.785 161.67 107.929 158.919 107.196 156.106C105.728 150.512 104.597 144.765 103.619 138.988C101.571 127.433 100.134 115.756 98.9115 104.017L98.2084 104.048C98.3307 115.847 99.0032 127.647 100.134 139.446C100.776 145.346 101.571 151.215 102.763 157.115C103.344 160.05 104.078 163.015 105.025 165.949C105.514 167.417 106.034 168.884 106.768 170.382C107.44 171.849 108.327 173.378 109.702 174.814C110.1 175.181 110.528 175.517 110.925 175.854C111.445 176.159 112.025 176.435 112.606 176.679C113.218 176.863 113.86 176.924 114.501 177.015C115.113 177.046 115.663 176.924 116.244 176.863C118.384 176.373 120.004 175.456 121.379 174.478C124.161 172.522 126.362 170.29 128.441 168.028C132.568 163.443 135.961 158.46 139.048 153.325C139.904 151.857 140.699 150.329 141.524 148.862C145.987 155.098 150.328 161.395 154.424 167.845C156.961 171.88 159.407 175.976 161.608 180.164C162.708 182.273 163.748 184.382 164.573 186.553C164.97 187.653 165.398 188.723 165.582 189.824C165.918 191.199 165.949 191.291 165.123 191.841C163.473 192.789 160.935 192.942 158.673 193.094C156.35 193.186 153.966 193.125 151.612 193.033C146.874 192.789 142.166 192.33 137.428 191.749C127.982 190.618 118.567 189.09 109.152 187.5C99.7368 185.911 90.3523 184.168 80.9982 182.395L66.9366 179.705L63.3907 179.033L61.6177 178.727L60.7007 178.574C60.6089 178.574 60.6089 178.544 60.3949 178.544C60.181 178.544 59.9364 178.544 59.7224 178.544C59.5085 178.574 59.2639 178.605 59.0499 178.635C58.7748 178.727 58.4997 178.88 58.2551 179.033C57.6743 179.4 57.4604 179.767 57.277 180.164C57.1853 180.347 57.063 180.592 57.0018 180.775L56.9101 181.203C56.7878 181.815 56.7878 182.243 56.8184 182.64C56.849 183.465 56.9713 184.138 57.1241 184.78C57.3992 186.094 57.7661 187.286 58.1329 188.479C61.2815 197.802 65.2248 206.453 69.0153 215.257L80.4786 241.515C87.9373 259.062 95.1515 276.7 100.776 294.735C103.588 303.723 106.003 312.863 107.043 321.911C107.562 326.404 107.715 330.959 106.737 334.872C106.248 336.798 105.484 338.51 104.383 339.763C102.947 341.353 101.235 343.095 99.584 344.715C92.9506 351.318 85.7058 357.554 78.5527 363.82C71.3997 370.118 64.0937 376.323 57.0935 382.895C50.0933 389.468 43.1542 396.162 36.9182 403.56C33.8308 407.289 30.9268 411.171 28.4507 415.359C25.9746 419.517 23.9877 424.071 23.254 428.901L23.9571 429.023C26.5249 419.883 32.822 412.455 39.3331 405.7C45.8748 398.883 53.0585 392.647 60.3644 386.564C75.0068 374.397 90.2911 362.995 104.536 349.759C106.309 348.047 107.99 346.396 109.763 344.471C111.842 342.117 113.034 339.335 113.737 336.645C115.082 331.234 114.838 326.099 114.379 321.116C113.187 311.181 110.466 301.827 107.471 292.595C101.296 274.254 93.5925 256.677 85.6752 239.223L73.7229 213.148C69.8101 204.466 65.6527 195.785 62.5347 187.042C62.1679 185.972 61.8317 184.871 61.5871 183.832C61.526 183.588 61.4955 183.374 61.4343 183.16L62.7182 183.374L66.2336 183.954L80.3563 186.4C89.7714 188.02 99.2172 189.579 108.693 191.016C118.17 192.391 127.646 193.675 137.214 194.592C141.983 195.051 146.782 195.418 151.612 195.54C154.027 195.601 156.442 195.601 158.887 195.418C160.11 195.326 161.333 195.204 162.555 194.99C163.778 194.745 165.032 194.47 166.315 193.675C166.927 193.308 167.63 192.605 167.844 191.658C168.027 190.618 167.722 190.068 167.599 189.457C167.232 188.142 166.774 187.011 166.315 185.88ZM59.9976 182.915C59.967 182.915 59.9365 182.915 59.9059 182.915C59.8447 182.885 59.9364 182.915 59.9976 182.915Z" fill="#919191"/>
<path d="M271.991 194.469C270.829 193.185 269.423 192.604 268.078 192.054C265.388 191.198 262.79 190.984 260.222 190.893C250.043 190.77 240.261 192.329 230.418 193.124C225.496 193.552 220.605 193.888 215.714 193.858C213.269 193.827 210.823 193.736 208.439 193.43C206.024 193.124 203.701 192.727 201.53 191.779C197.159 189.976 193.338 186.796 190.128 183.189C186.888 179.552 184.137 175.455 181.722 171.206C176.922 162.647 173.193 153.415 170.411 143.97L169.739 144.153C172.307 153.752 175.822 163.106 180.499 171.909C182.883 176.281 185.543 180.53 188.814 184.382C192.084 188.203 195.967 191.657 200.735 193.766C203.089 194.867 205.688 195.356 208.164 195.722C210.67 196.089 213.177 196.242 215.683 196.334C220.697 196.487 225.679 196.242 230.632 195.936C240.536 195.356 250.44 194.072 260.069 194.408C262.454 194.53 264.838 194.805 266.855 195.509C267.803 195.906 268.72 196.364 269.209 196.976C269.698 197.587 269.943 198.26 269.943 199.146C269.912 199.605 269.882 200.094 269.729 200.552C269.545 201.011 269.454 201.439 269.209 201.928C268.659 202.906 268.17 203.915 267.467 204.893C266.183 206.88 264.685 208.806 263.157 210.701C257.012 218.313 250.287 225.588 243.684 232.955C230.418 247.659 217.151 262.454 204.984 278.227C198.871 286.114 193.032 294.245 187.805 302.835C186.49 304.975 185.207 307.145 184.014 309.377C182.761 311.578 181.661 313.87 180.53 316.133C179.368 318.395 178.481 320.809 177.473 323.163C176.647 325.609 175.669 327.993 175.058 330.561C173.59 335.544 172.979 340.954 173.254 346.395C173.407 347.771 173.529 349.147 173.743 350.492L174.844 354.557C175.669 357.095 176.525 359.265 177.411 361.649C180.988 370.912 184.626 380.113 188.08 389.314C191.595 398.515 194.866 407.777 197.709 417.131C200.521 426.516 202.753 436.023 204.404 445.621C205.901 455.251 206.482 465.032 206.115 474.784C205.749 484.566 203.884 494.226 201.377 503.794L202.05 504.008C205.596 494.715 208.072 484.994 209.295 475.028C210.273 465.063 210.242 454.975 209.233 444.949C208.164 434.953 206.115 425.11 203.639 415.389C201.011 405.729 197.923 396.222 194.622 386.838C191.229 377.484 187.652 368.252 184.167 358.99C183.372 356.697 182.333 354.313 181.63 352.142L180.744 349.055C180.591 347.985 180.468 346.885 180.346 345.784C180.102 341.382 180.468 336.766 181.752 332.242C182.241 329.95 183.097 327.718 183.8 325.487C184.717 323.286 185.451 321.023 186.521 318.853C187.53 316.683 188.508 314.482 189.67 312.342C190.77 310.172 191.932 308.062 193.185 305.953C198.045 297.516 203.609 289.415 209.447 281.529C221.186 265.755 234.086 250.807 247.108 235.89C253.589 228.4 260.161 221.003 266.336 213.116C267.864 211.129 269.393 209.142 270.768 206.941C271.502 205.902 272.113 204.679 272.725 203.487C273.03 202.845 273.244 202.081 273.458 201.378C273.642 200.644 273.703 199.88 273.733 199.116C273.764 197.495 273.153 195.722 271.991 194.469Z" fill="#919191"/>
<path d="M1595.31 1085.06C1595.31 1085.06 1594.61 1066.72 1586.84 1054C1579.08 1041.28 1550.86 1032.11 1536.04 1038.47C1521.21 1044.83 1514.15 1049.05 1514.15 1049.05C1514.15 1049.05 1536.04 1055.4 1555.78 1068.79C1575.53 1082.21 1595.31 1085.06 1595.31 1085.06Z" fill="#FF902C"/>
<path d="M1624.93 1094.23C1624.93 1094.23 1608 1077.99 1605.18 1055.4C1602.37 1032.81 1626.37 997.538 1626.37 997.538C1626.37 997.538 1638.35 1019.43 1645.41 1044.83C1652.47 1070.23 1624.93 1094.23 1624.93 1094.23Z" fill="#FF902C"/>
<path d="M1657.39 1087.17C1657.39 1087.17 1653.14 1066.01 1660.91 1051.19C1668.67 1036.36 1689.12 1037.77 1709.6 1044.12C1730.06 1050.48 1736.41 1050.48 1736.41 1050.48C1736.41 1050.48 1712.42 1066.72 1691.97 1075.18C1671.52 1083.65 1657.39 1087.17 1657.39 1087.17Z" fill="#FF902C"/>
<path d="M1625.14 1163.19C1624.13 1163.19 1623.31 1162.36 1623.31 1161.36V1060.45C1623.31 1059.44 1624.13 1058.61 1625.14 1058.61C1626.15 1058.61 1626.98 1059.44 1626.98 1060.45V1161.36C1626.95 1162.4 1626.15 1163.19 1625.14 1163.19Z" fill="#4C5254"/>
<path d="M1633.61 1163.19C1633.52 1163.19 1633.46 1163.19 1633.37 1163.16C1632.36 1163.04 1631.65 1162.09 1631.81 1161.11C1632.14 1158.57 1640.67 1098.81 1669.65 1065.61C1670.32 1064.85 1671.46 1064.79 1672.22 1065.43C1672.98 1066.1 1673.04 1067.23 1672.4 1068C1644.16 1100.37 1635.54 1160.99 1635.45 1161.6C1635.29 1162.55 1634.5 1163.19 1633.61 1163.19Z" fill="#565C5E"/>
<path d="M1616.68 1161.78C1616.65 1161.78 1616.65 1161.78 1616.68 1161.78C1615.64 1161.78 1614.84 1160.96 1614.84 1159.95C1614.84 1159.37 1615.12 1101.93 1580.94 1074.6C1580.15 1073.96 1580.02 1072.83 1580.67 1072.03C1581.31 1071.24 1582.44 1071.12 1583.23 1071.76C1618.82 1100.22 1618.54 1157.57 1618.51 1160.01C1618.48 1160.99 1617.65 1161.78 1616.68 1161.78Z" fill="#68686D"/>
<path d="M1644.89 1161.08C1644.74 1161.08 1644.59 1161.05 1644.43 1161.02C1643.45 1160.74 1642.87 1159.77 1643.15 1158.79C1643.36 1158.02 1648.31 1139.93 1659.66 1124.31C1660.24 1123.48 1661.4 1123.3 1662.19 1123.91C1663.02 1124.49 1663.2 1125.65 1662.59 1126.45C1651.62 1141.52 1646.69 1159.55 1646.63 1159.7C1646.42 1160.56 1645.69 1161.08 1644.89 1161.08Z" fill="#606060"/>
<path d="M1655.99 1133.02C1655.99 1133.02 1655.28 1113.27 1663.75 1110.43C1672.22 1107.59 1679.98 1114.65 1686.34 1118.9C1692.7 1123.11 1699.76 1127.36 1699.76 1140.05C1699.76 1152.74 1694.81 1176.03 1694.81 1176.03C1694.81 1176.03 1687.75 1154.14 1675.77 1144.27C1663.75 1134.46 1655.99 1133.02 1655.99 1133.02Z" fill="#FF902C"/>
<path d="M1603.96 1161.78C1603.19 1161.78 1602.46 1161.3 1602.22 1160.53C1602.16 1160.35 1596.56 1143.29 1583.78 1133.17C1582.99 1132.56 1582.87 1131.4 1583.48 1130.6C1584.12 1129.81 1585.25 1129.69 1586.05 1130.3C1599.74 1141.09 1605.46 1158.67 1605.7 1159.4C1606.01 1160.35 1605.49 1161.39 1604.51 1161.69C1604.33 1161.75 1604.14 1161.78 1603.96 1161.78Z" fill="#646768"/>
<path d="M1595.31 1139.38C1595.31 1139.38 1598.12 1126.66 1591.06 1117.49C1584 1108.32 1567.06 1110.43 1558.6 1120.3C1550.13 1130.18 1538.15 1159.83 1538.15 1159.83C1538.15 1159.83 1555.08 1146.41 1574.83 1146.41C1594.61 1146.44 1595.31 1139.38 1595.31 1139.38Z" fill="#FF902C"/>
<path d="M1651.52 1269.97H1595.22L1567.06 1176.82H1679.71L1651.52 1269.97Z" fill="#E0CCBE" stroke="#263238" stroke-miterlimit="10" stroke-linecap="round" stroke-linejoin="round"/>
<path d="M1679.98 1161.39H1566.73V1176.82H1679.98V1161.39Z" fill="#A3A3A3" stroke="#263238" stroke-miterlimit="10" stroke-linecap="round" stroke-linejoin="round"/>
<path d="M1131.74 1095.36H1105.26V1110.67H1131.74V1095.36Z" fill="white" stroke="#263238" stroke-miterlimit="10" stroke-linecap="round" stroke-linejoin="round"/>
<path d="M1168.54 1264H1068.49L1092.18 1106.52H1144.85L1168.54 1264Z" fill="#858585" stroke="#263238" stroke-miterlimit="10" stroke-linecap="round" stroke-linejoin="round"/>
<path d="M1088.97 1132.53L1137.39 1106.73" stroke="#263238" stroke-miterlimit="10" stroke-linecap="round" stroke-linejoin="round"/>
<path d="M1088.97 1145.67L1137.39 1119.9" stroke="#263238" stroke-miterlimit="10" stroke-linecap="round" stroke-linejoin="round"/>
<path d="M1147.94 1133.57L1098.97 1160.96" stroke="#263238" stroke-miterlimit="10" stroke-linecap="round" stroke-linejoin="round"/>
<path d="M1097.41 1177.8L1114.25 1169.36" stroke="#263238" stroke-miterlimit="10" stroke-linecap="round" stroke-linejoin="round"/>
<path d="M1157.41 1195.16L1086.86 1232.03" stroke="#263238" stroke-miterlimit="10" stroke-linecap="round" stroke-linejoin="round"/>
<path d="M1094.23 1246.24L1150.57 1216.75" stroke="#263238" stroke-miterlimit="10" stroke-linecap="round" stroke-linejoin="round"/>
<path d="M1087.93 1248.87L1074.24 1256.76" stroke="#263238" stroke-miterlimit="10" stroke-linecap="round" stroke-linejoin="round"/>
<path d="M1162.67 1237.29L1126.36 1256.24" stroke="#263238" stroke-miterlimit="10" stroke-linecap="round" stroke-linejoin="round"/>
<path d="M1060.79 1095.36H1034.31V1110.67H1060.79V1095.36Z" fill="white" stroke="#263238" stroke-miterlimit="10" stroke-linecap="round" stroke-linejoin="round"/>
<path d="M1097.56 1264H997.539L1021.2 1106.52H1073.9L1097.56 1264Z" fill="white" stroke="#263238" stroke-miterlimit="10" stroke-linecap="round" stroke-linejoin="round"/>
<path d="M1018.02 1132.53L1066.44 1106.73" stroke="#263238" stroke-miterlimit="10" stroke-linecap="round" stroke-linejoin="round"/>
<path d="M1018.02 1145.67L1066.44 1119.9" stroke="#263238" stroke-miterlimit="10" stroke-linecap="round" stroke-linejoin="round"/>
<path d="M1076.96 1133.57L1028.02 1160.96" stroke="#263238" stroke-miterlimit="10" stroke-linecap="round" stroke-linejoin="round"/>
<path d="M1026.43 1177.8L1043.27 1169.36" stroke="#263238" stroke-miterlimit="10" stroke-linecap="round" stroke-linejoin="round"/>
<path d="M1086.43 1195.16L1015.91 1232.03" stroke="#263238" stroke-miterlimit="10" stroke-linecap="round" stroke-linejoin="round"/>
<path d="M1023.28 1246.24L1079.59 1216.75" stroke="#263238" stroke-miterlimit="10" stroke-linecap="round" stroke-linejoin="round"/>
<path d="M1016.95 1248.87L1003.26 1256.76" stroke="#263238" stroke-miterlimit="10" stroke-linecap="round" stroke-linejoin="round"/>
<path d="M1091.69 1237.29L1055.37 1256.24" stroke="#263238" stroke-miterlimit="10" stroke-linecap="round" stroke-linejoin="round"/>
<path d="M536.172 707.206C536.172 707.206 414.906 730.652 382.32 738.784C349.703 746.946 337.476 771.4 326.287 798.912C315.069 826.424 235.59 1000.67 231.525 1010.84C227.459 1021.02 252.923 1027.14 284.5 1038.36C316.078 1049.58 334.419 1061.8 343.589 1049.58C352.76 1037.35 376.206 990.486 376.206 990.486L366.027 1246.25H742.021L725.728 979.298C725.728 979.298 740.004 771.431 738.965 763.269C737.956 755.107 613.633 706.197 600.397 705.189C587.13 704.149 536.172 707.206 536.172 707.206Z" fill="#FF823C"/>
<g opacity="0.4">
<path opacity="0.4" d="M371.162 1116.73L370.551 1132.39C456.602 1146.2 584.715 1156.84 735.419 1138.04L734.471 1122.76C589.453 1140.98 463.908 1131.77 371.162 1116.73Z" fill="white"/>
<path opacity="0.4" d="M694.793 874.203C687.671 880.501 622.468 936.411 546.932 941.363C466.934 946.621 397.513 905.903 397.054 905.659L305.532 846.172C303.514 850.696 301.374 855.434 299.204 860.295L388.984 918.65C391.98 920.423 463.082 962.18 547.941 956.647C633.075 951.053 702.863 887.592 705.767 884.902C706.226 884.474 706.623 884.016 706.959 883.496C707.204 883.129 717.689 867.478 734.257 849.993C734.746 842.106 735.235 834.403 735.694 827.005C713.318 847.609 698.003 869.435 694.793 874.203Z" fill="white"/>
<path opacity="0.4" d="M260.595 945.979C258.425 950.778 256.316 955.424 254.298 959.918L366.577 1009.26C369.389 1003.84 371.865 999.046 373.577 995.653L260.595 945.979Z" fill="white"/>
<path opacity="0.4" d="M327.999 794.756C367.983 815.298 481.668 872.4 517.984 875.915C554.146 879.431 676.115 794.786 729.458 756.3C725.331 754.038 720.043 751.44 713.959 748.627C641.97 800.105 544.456 863.107 519.451 860.723C489.494 857.819 391.827 810.56 334.297 780.847C332.065 785.31 329.986 789.956 327.999 794.756Z" fill="white"/>
<path opacity="0.4" d="M377.001 1013.75C382.197 1015.34 505.42 1052.39 600.274 1041.38C681.465 1031.97 716.802 1004.58 726.676 995.286L725.698 979.268C725.698 979.268 726.064 973.887 726.676 964.809C720.379 973.246 717.841 979.91 716.863 983.517C710.597 989.569 678.255 1016.96 598.501 1026.19C509.516 1036.49 389.901 1001.64 381.861 999.259L375.961 996.661L375.319 1013.08L376.175 1013.44C376.42 1013.57 376.726 1013.66 377.001 1013.75Z" fill="white"/>
<path opacity="0.4" d="M480.507 910.03C546.535 921.249 626.686 882.916 676.849 839.936C694.854 824.499 717.108 807.625 737.742 792.616C738.17 784.729 738.537 778.065 738.751 773.052C715.243 789.895 688.19 810.101 666.914 828.35C619.472 869.037 544.212 905.414 483.074 894.99C433.339 886.523 352.088 831.01 321.855 809.367C320.082 813.433 317.973 818.263 315.558 823.704C348.45 847.15 428.509 901.196 480.507 910.03Z" fill="white"/>
<path opacity="0.4" d="M739.301 1201.72L738.384 1186.46C660.159 1190.5 504.595 1195.94 368.472 1184.84L367.861 1200.1C428.234 1204.99 492.276 1206.67 551.793 1206.67C627.297 1206.67 695.404 1203.98 739.301 1201.72Z" fill="white"/>
<path opacity="0.4" d="M426.002 1089.22C518.809 1102.64 691.094 1089.41 732.239 1085.92L729.488 1040.68C728.357 1043 727.776 1044.47 727.685 1044.78C727.196 1046.09 727.073 1047.5 727.318 1048.84L731.292 1070.67C691.43 1074 518.442 1087.18 428.234 1074.09C410.321 1071.49 391.766 1068.31 373.302 1064.83L372.691 1080.27C390.573 1083.63 408.578 1086.69 426.002 1089.22Z" fill="white"/>
<path opacity="0.4" d="M379.569 962.486C385.56 966.093 471.519 1016.78 563.378 1005.8C656.551 994.674 718.453 933.72 721.051 931.122C721.785 930.388 722.243 929.777 722.641 928.829C722.671 928.768 724.2 925.834 729.702 920.515C730.161 913.698 730.619 906.575 731.108 899.239C716.833 910.121 711.392 917.611 709.435 921.096C701.915 928.218 643.804 980.796 561.605 990.609C473.751 1001.12 388.189 949.8 387.333 949.28C387.211 949.188 387.058 949.127 386.936 949.035L283.797 894.623C281.718 899.269 279.609 903.916 277.5 908.593L379.569 962.486Z" fill="white"/>
</g>
<path d="M376.206 990.456L401.639 867.875" stroke="#263238" stroke-miterlimit="10" stroke-linecap="round" stroke-linejoin="round"/>
<path d="M358.965 749.483C395.617 775.069 502.73 848.495 522.936 846.783C541.522 845.224 626.105 765.929 665.569 728.024C635.551 716.041 606.419 705.617 600.397 705.159C587.161 704.15 536.203 707.207 536.203 707.207C536.203 707.207 414.937 730.653 382.351 738.784C372.997 741.108 365.415 744.806 358.965 749.483Z" fill="#FFF7EF" stroke="#263238" stroke-miterlimit="10" stroke-linecap="round" stroke-linejoin="round"/>
<path d="M536.172 707.207C536.172 707.207 414.906 730.653 382.32 738.784C349.703 746.946 337.476 771.401 326.287 798.913C315.069 826.425 235.59 1000.67 231.525 1010.85C227.459 1021.02 252.923 1027.14 284.5 1038.36C316.078 1049.58 334.419 1061.8 343.589 1049.58C352.76 1037.35 376.206 990.487 376.206 990.487L366.027 1246.25H742.021L725.728 979.298C725.728 979.298 740.004 771.431 738.965 763.27C737.956 755.108 613.633 706.198 600.397 705.189C587.13 704.15 536.172 707.207 536.172 707.207Z" stroke="#263238" stroke-miterlimit="10" stroke-linecap="round" stroke-linejoin="round"/>
<path d="M628.917 711.272C628.917 711.272 625.86 771.4 612.624 860.05C599.388 948.699 599.388 944.633 599.388 985.381C599.388 1026.13 609.567 1156.57 609.567 1156.57H625.86C625.86 1156.57 612.624 1019.01 613.633 983.333C614.642 947.659 622.804 876.343 631.974 844.765C641.145 813.188 644.202 719.434 644.202 719.434L628.917 711.272Z" fill="white" stroke="#263238" stroke-miterlimit="10" stroke-linecap="round" stroke-linejoin="round"/>
<path d="M502.73 712.433L481.179 717.385C481.179 717.385 472.008 776.475 476.074 833.546C480.14 890.618 486.253 907.92 486.253 907.92C486.253 907.92 491.358 769.352 495.424 743.858C499.49 718.394 502.73 712.433 502.73 712.433Z" fill="white" stroke="#263238" stroke-miterlimit="10" stroke-linecap="round" stroke-linejoin="round"/>
<path d="M486.253 907.92C486.253 907.92 488.301 972.114 484.205 1039.37C480.139 1106.62 480.139 1165.71 480.139 1165.71L498.481 1166.71C498.481 1166.71 496.432 1089.28 496.432 1024.05C496.432 958.817 486.253 907.92 486.253 907.92Z" fill="white" stroke="#263238" stroke-miterlimit="10" stroke-linecap="round" stroke-linejoin="round"/>
<path d="M514.774 771.401L517.831 668.477H623.812L621.764 762.231" fill="#FFF7EF"/>
<path d="M514.774 771.401L517.831 668.477H623.812L621.764 762.231" stroke="#263238" stroke-miterlimit="10" stroke-linecap="round" stroke-linejoin="round"/>
<path d="M623.201 696.661L597.432 668.477H517.831L515.599 743.737C521.53 746.06 535.622 749.27 560.138 742.117C591.776 732.885 619.716 701.46 623.17 697.456L623.201 696.661Z" fill="#E0CCBE"/>
<path d="M468.065 417.293C446.85 438.508 429.059 467.884 428.173 493.715C427.134 524.1 409.312 567.08 399.866 571.268C390.451 575.456 387.303 578.604 387.303 578.604C387.303 578.604 407.203 588.019 415.609 586.98C423.985 585.941 431.322 582.792 431.322 582.792C431.322 582.792 425.024 591.168 420.836 595.356C416.649 599.544 416.649 599.544 416.649 599.544L433.431 603.732C433.431 603.732 421.906 611.068 413.531 613.177C405.155 615.287 399.897 615.287 399.897 615.287C399.897 615.287 402.006 634.147 423.985 640.445C445.994 646.742 462.746 643.593 462.746 643.593L450.182 656.157C450.182 656.157 453.331 659.305 474.27 660.345C495.241 661.384 505.695 655.117 505.695 655.117L634.603 649.89C634.603 649.89 637.752 660.375 652.425 665.603C667.098 670.83 674.434 672.939 674.434 672.939C674.434 672.939 672.325 664.563 671.286 660.375C670.246 656.187 668.137 639.405 668.137 639.405C668.137 639.405 675.473 658.266 710.047 659.305C744.62 660.345 756.144 640.445 756.144 640.445C756.144 640.445 743.58 640.444 735.174 628.92C726.798 617.396 725.759 613.208 725.759 613.208C725.759 613.208 739.393 618.435 749.847 617.396C760.332 616.356 768.708 609.02 768.708 609.02C768.708 609.02 727.838 579.674 725.759 559.774C723.65 539.874 718.422 462.321 703.749 436.124C689.077 409.926 663.919 385.838 598.96 374.283C563.806 368.047 526.94 378.318 496.249 395.406C486.926 400.572 477.174 408.184 468.065 417.293Z" fill="#263238" stroke="#263238" stroke-miterlimit="10" stroke-linecap="round" stroke-linejoin="round"/>
<path d="M635.245 512.851C635.245 512.851 572.794 567.019 475.769 582.028C475.769 582.028 476.013 643.685 509.272 684.861C545.404 729.583 567.597 729.95 576.89 729.247C602.17 727.26 653.709 667.559 656.001 657.135C658.325 646.742 661.779 607.461 661.779 582.028C661.779 556.595 631.76 539.415 635.245 512.851Z" fill="#FFF7EF" stroke="#263238" stroke-miterlimit="10" stroke-linecap="round" stroke-linejoin="round"/>
<path d="M455.929 599.819C454.187 599.819 452.72 598.412 452.689 596.639C452.628 594.836 454.065 593.338 455.868 593.277C583.89 589.731 629.926 518.781 630.385 518.078C631.332 516.549 633.35 516.091 634.878 517.039C636.407 517.986 636.865 520.004 635.918 521.532C634.022 524.589 587.803 596.12 456.052 599.788C455.991 599.819 455.96 599.819 455.929 599.819Z" fill="#263238"/>
<path d="M514.254 618.955C514.254 618.955 523.394 621.247 536.569 618.955" stroke="#263238" stroke-miterlimit="10" stroke-linecap="round" stroke-linejoin="round"/>
<path d="M608.07 617.793C608.07 617.793 622.376 620.667 633.809 617.212" stroke="#263238" stroke-miterlimit="10" stroke-linecap="round" stroke-linejoin="round"/>
<path d="M617.546 618.588C620.095 618.588 622.162 614.469 622.162 609.387C622.162 604.306 620.095 600.186 617.546 600.186C614.997 600.186 612.93 604.306 612.93 609.387C612.93 614.469 614.997 618.588 617.546 618.588Z" fill="#263238"/>
<path d="M665.753 595.142C663.888 591.565 659.517 589.272 652.761 588.325C642.031 586.827 583.859 590.709 581.383 590.862L580.374 591.076C579.794 591.29 579.182 591.596 578.571 591.962V591.657H560.444V591.962C559.802 591.596 559.19 591.29 558.64 591.076L557.631 590.862C555.155 590.709 496.983 586.796 486.253 588.325C479.528 589.272 475.157 591.565 473.262 595.142C471.917 597.679 471.978 600.644 473.384 603.517C473.629 604.037 473.934 604.893 474.332 606.024C477.694 615.5 486.651 640.719 518.198 641.912C519.634 641.973 521.01 642.003 522.324 642.003C553.841 642.003 561.544 627.116 566.252 613.024C566.649 611.801 566.924 610.64 567.169 609.539H571.846C572.06 610.67 572.335 611.801 572.732 613.024C577.44 627.116 585.113 642.003 616.659 642.003C618.004 642.003 619.38 641.973 620.786 641.912C652.333 640.689 661.29 615.5 664.652 606.024C665.05 604.893 665.355 604.037 665.6 603.517C667.067 600.644 667.098 597.679 665.753 595.142ZM566.221 598.535H572.824C572.274 599.757 571.846 601.164 571.601 602.723H567.444C567.23 601.133 566.802 599.757 566.221 598.535ZM559.832 610.854C555.186 624.793 548.919 636.195 518.503 635.064C491.603 634.025 484.052 612.78 480.812 603.701C480.293 602.233 479.895 601.102 479.559 600.461C479.253 599.88 479.009 599.024 479.375 598.321C479.651 597.77 481.057 595.967 487.262 595.08C488.729 594.866 491.297 594.775 494.66 594.775C510.25 594.775 542.5 596.67 556.561 597.618C558.12 598.474 562.859 601.806 559.832 610.854ZM659.517 600.461C659.18 601.133 658.783 602.264 658.263 603.701C655.054 612.78 647.503 634.025 620.572 635.064C590.217 636.195 583.89 624.793 579.243 610.854C576.217 601.775 580.925 598.474 582.484 597.648C599.602 596.517 643.621 593.919 651.813 595.08C658.019 595.967 659.425 597.77 659.7 598.321C660.097 599.024 659.822 599.88 659.517 600.461Z" fill="white" stroke="#263238" stroke-miterlimit="10" stroke-linecap="round" stroke-linejoin="round"/>
<path d="M551.518 651.755C551.518 651.755 562.584 660.345 570.562 659.734C578.54 659.123 586.519 653.59 588.384 649.921" stroke="#263238" stroke-miterlimit="10" stroke-linecap="round" stroke-linejoin="round"/>
<path d="M542.928 667.13C542.928 667.13 547.421 681.895 574.872 680.641C594.314 679.755 598.838 665.296 598.838 665.296" stroke="#263238" stroke-miterlimit="10" stroke-linecap="round" stroke-linejoin="round"/>
<path d="M591.471 582.914C591.471 582.914 611.707 571.94 627.695 573.774C643.651 575.608 650.407 581.141 650.407 581.141" stroke="#263238" stroke-width="2" stroke-miterlimit="10" stroke-linecap="round" stroke-linejoin="round"/>
<path d="M548.002 582.333C548.002 582.333 533.727 576.22 517.739 577.442C501.782 578.665 490.105 584.81 490.105 584.81" stroke="#263238" stroke-width="2" stroke-miterlimit="10" stroke-linecap="round" stroke-linejoin="round"/>
<path d="M522.661 618.588C525.21 618.588 527.277 614.469 527.277 609.387C527.277 604.306 525.21 600.186 522.661 600.186C520.112 600.186 518.045 604.306 518.045 609.387C518.045 614.469 520.112 618.588 522.661 618.588Z" fill="#263238"/>
<path d="M721.632 755.078C721.632 755.078 772.59 771.371 782.77 781.581C792.949 791.76 856.135 941.547 874.476 966.001C892.817 990.456 883.646 1001.68 874.476 1010.85C865.305 1020.02 807.225 1044.47 784.818 1046.52C762.411 1048.57 738.965 1053.64 728.785 1013.9C718.606 974.163 716.558 917.092 706.379 887.562C696.199 858.002 693.142 853.937 693.142 853.937" fill="#FF823C"/>
<g opacity="0.4">
<path opacity="0.4" d="M756.908 882.243C730.803 897.558 718.636 909.082 713.012 915.991C714.082 922.288 715.09 928.952 716.038 935.83C718.942 933.231 720.654 931.55 721.021 931.153C721.754 930.419 722.213 929.808 722.61 928.86C722.671 928.738 729.03 916.296 764.612 895.418C781.486 885.514 804.748 876.037 825.566 868.518C823.395 863.841 821.225 859.163 819.116 854.578C798.023 862.251 774.485 871.911 756.908 882.243Z" fill="white"/>
<path opacity="0.4" d="M781.853 921.707C744.009 941.546 727.96 960.988 721.174 973.338C722.336 981.347 723.589 989.233 725.026 996.784C727.93 994.216 729.428 992.504 729.672 992.199C730.528 991.19 731.139 989.784 731.384 988.469C731.415 988.225 736.642 962.608 788.914 935.219C810.557 923.878 830.793 918.039 847.423 915.074C845.191 910.427 842.898 905.628 840.606 900.707C823.548 904.161 803.373 910.427 781.853 921.707Z" fill="white"/>
<path opacity="0.4" d="M735.113 1030.59C738.2 1036.16 741.777 1040.01 745.72 1042.64C752.598 1030.65 769.808 1006.78 805.085 990.088C829.234 978.656 855.401 972.053 876.096 968.293C875.576 967.529 875.087 966.795 874.476 966C872.55 963.402 870.104 959.428 867.261 954.354C846.689 958.45 821.928 965.175 798.512 976.271C763.481 992.87 744.406 1015.92 735.113 1030.59Z" fill="white"/>
<path opacity="0.4" d="M699.256 867.906C700.907 872.216 702.985 877.84 705.522 885.116C705.614 885.024 705.736 884.902 705.798 884.871C706.256 884.443 706.653 883.985 706.99 883.465C707.448 882.762 747.86 822.48 796.372 806.157C793.774 800.868 791.451 796.222 789.433 792.401C746.76 807.777 711.881 850.726 699.256 867.906Z" fill="white"/>
<path opacity="0.4" d="M719.156 763.698C722.305 761.435 725.331 759.296 728.143 757.247C724.139 755.902 721.632 755.077 721.632 755.077L719.156 763.698Z" fill="white"/>
<path opacity="0.4" d="M710.475 793.746L703.352 818.415C724.903 801.633 748.196 784.912 766.599 772.073C761.402 769.689 755.594 767.304 749.908 765.104C737.772 773.663 724.139 783.475 710.475 793.746Z" fill="white"/>
</g>
<path d="M721.632 755.078C721.632 755.078 772.59 771.371 782.77 781.581C792.949 791.76 856.135 941.547 874.476 966.001C892.817 990.456 883.646 1001.68 874.476 1010.85C865.305 1020.02 807.225 1044.47 784.818 1046.52C762.411 1048.57 738.965 1053.64 728.785 1013.9C718.606 974.163 716.558 917.092 706.379 887.562C696.199 858.002 693.142 853.937 693.142 853.937" stroke="#263238" stroke-miterlimit="10"/>
<path d="M878.541 1065.87C878.541 1065.87 869.371 1026.13 861.209 1011.85C853.047 997.578 791.909 1009.81 768.494 1018.98C745.048 1028.15 623.812 1059.72 586.091 1068.9C548.369 1078.07 523.944 1089.28 510.678 1102.52C497.441 1115.76 436.304 1146.33 440.37 1152.44C444.435 1158.55 463.816 1158.55 477.052 1158.55C490.288 1158.55 522.905 1148.37 525.962 1146.33C529.019 1144.28 533.085 1144.28 533.085 1144.28L510.678 1161.61C510.678 1161.61 513.735 1170.78 524.953 1163.66C536.172 1156.54 556.531 1142.26 560.627 1139.2C564.693 1136.15 584.073 1129.02 590.187 1122.91C596.301 1116.8 600.366 1106.62 600.366 1106.62C600.366 1106.62 738.934 1110.68 803.128 1100.5C867.322 1090.32 875.484 1072.99 878.541 1065.87Z" fill="#FFF7EF" stroke="#263238" stroke-miterlimit="10" stroke-linecap="round" stroke-linejoin="round"/>
<path d="M464.855 1158.58C464.855 1158.58 464.855 1153.48 476.074 1149.41C487.293 1145.35 506.643 1140.24 529.049 1121.9" stroke="#263238" stroke-miterlimit="10" stroke-linecap="round" stroke-linejoin="round"/>
<path d="M533.115 1144.34C533.115 1144.34 547.391 1134.16 555.522 1127.01" stroke="#263238" stroke-miterlimit="10" stroke-linecap="round" stroke-linejoin="round"/>
<path d="M451.619 1156.57C451.619 1156.57 450.61 1148.4 463.847 1142.29C477.083 1136.18 490.35 1132.11 514.805 1112.73" stroke="#263238" stroke-miterlimit="10" stroke-linecap="round" stroke-linejoin="round"/>
<path d="M339.524 1116.83C339.524 1116.83 332.401 1090.32 322.191 1044.47C312.012 998.618 272.273 993.513 254.94 997.609C237.608 1001.67 226.42 1014.94 231.494 1042.45C236.599 1069.97 279.395 1149.44 285.509 1156.57C291.623 1163.69 334.419 1158.61 345.638 1145.35C356.856 1132.11 339.524 1116.83 339.524 1116.83Z" fill="#FFF7EF" stroke="#263238" stroke-miterlimit="10" stroke-linecap="round" stroke-linejoin="round"/>
<path d="M296.728 1151.46C296.728 1151.46 332.401 1124.96 343.589 1119.88C354.808 1114.78 394.547 1114.78 407.783 1117.84C421.02 1120.89 438.352 1157.58 438.352 1157.58C438.352 1157.58 325.248 1163.69 308.955 1163.69C292.662 1163.69 286.548 1166.75 285.509 1156.57" fill="#FFF7EF"/>
<path d="M296.728 1151.46C296.728 1151.46 332.401 1124.96 343.589 1119.88C354.808 1114.78 394.547 1114.78 407.783 1117.84C421.02 1120.89 438.352 1157.58 438.352 1157.58C438.352 1157.58 325.248 1163.69 308.955 1163.69C292.662 1163.69 286.548 1166.75 285.509 1156.57" stroke="#263238" stroke-miterlimit="10" stroke-linecap="round" stroke-linejoin="round"/>
<path d="M371.101 1161.64C371.101 1161.64 344.598 1134.13 339.524 1129.02" stroke="#263238" stroke-miterlimit="10" stroke-linecap="round" stroke-linejoin="round"/>
<path d="M391.491 1158.58L360.922 1122.94" stroke="#263238" stroke-miterlimit="10" stroke-linecap="round" stroke-linejoin="round"/>
<path d="M416.954 1159.62C416.954 1159.62 396.565 1130.06 385.377 1120.89" stroke="#263238" stroke-miterlimit="10" stroke-linecap="round" stroke-linejoin="round"/>
<path d="M75.9259 911.737H43.2174V962.42H75.9259V911.737Z" fill="#FF902C" stroke="#263238" stroke-miterlimit="10" stroke-linecap="round" stroke-linejoin="round"/>
<path d="M42.8506 927.052L62.0783 912.777" stroke="#263238" stroke-miterlimit="10" stroke-linecap="round" stroke-linejoin="round"/>
<path d="M43.5537 939.157L75.9259 911.737" stroke="#263238" stroke-miterlimit="10" stroke-linecap="round" stroke-linejoin="round"/>
<path d="M48.5364 934.878L59.2354 950.56" stroke="#263238" stroke-miterlimit="10" stroke-linecap="round" stroke-linejoin="round"/>
<path d="M57.7988 927.755L69.9346 946.28" stroke="#263238" stroke-miterlimit="10" stroke-linecap="round" stroke-linejoin="round"/>
<path d="M67.0918 919.929L75.6205 935.611" stroke="#263238" stroke-miterlimit="10" stroke-linecap="round" stroke-linejoin="round"/>
<path d="M45.6937 962.695L75.6205 941.297" stroke="#263238" stroke-miterlimit="10" stroke-linecap="round" stroke-linejoin="round"/>
<path d="M62.8121 961.258L74.9173 954.135" stroke="#263238" stroke-miterlimit="10" stroke-linecap="round" stroke-linejoin="round"/>
<path d="M272.177 960.984L265.635 968.473H108.818L102.306 960.984H11.0284V1030.83H363.424V960.984H272.177Z" fill="white" stroke="#263238" stroke-miterlimit="10" stroke-linecap="round" stroke-linejoin="round"/>
<path d="M428.933 1111.56H328.973L307.545 936.131H450.362L428.933 1111.56Z" fill="white" stroke="#263238" stroke-miterlimit="10" stroke-linecap="round" stroke-linejoin="round"/>
<path d="M419.854 936.131L418.356 1111.56H428.933L450.362 936.131H419.854Z" fill="white" stroke="#263238" stroke-miterlimit="10" stroke-linecap="round" stroke-linejoin="round"/>
<path d="M262.12 992.928H115.359C112.547 992.928 110.254 990.635 110.254 987.823V987.12C110.254 984.308 112.547 982.015 115.359 982.015H262.12C264.932 982.015 267.224 984.308 267.224 987.12V987.823C267.224 990.666 264.932 992.928 262.12 992.928Z" fill="white" stroke="#263238" stroke-miterlimit="10" stroke-linecap="round" stroke-linejoin="round"/>
<path d="M26.2823 1030.83V1248.54H557.138V1173.41C557.138 1162.52 548.304 1153.69 537.421 1153.69H169.68C161.549 1153.69 154.976 1147.09 154.976 1138.98V1109.67C154.976 1077.97 170.964 1048.44 197.497 1031.08L26.2823 1030.83Z" fill="white" stroke="#263238" stroke-miterlimit="10" stroke-linecap="round" stroke-linejoin="round"/>
<path d="M11.0284 1030.83V1248.54H541.884V1153.72H154.396C146.264 1153.72 139.692 1147.12 139.692 1139.02V1109.7C139.692 1078 155.679 1048.47 182.213 1031.11L11.0284 1030.83Z" fill="white" stroke="#263238" stroke-miterlimit="10" stroke-linecap="round" stroke-linejoin="round"/>
<path d="M57.1261 1237.08C75.6294 1237.08 90.6293 1222.08 90.6293 1203.58C90.6293 1185.07 75.6294 1170.07 57.1261 1170.07C38.6227 1170.07 23.6228 1185.07 23.6228 1203.58C23.6228 1222.08 38.6227 1237.08 57.1261 1237.08Z" fill="#858585" stroke="#263238" stroke-miterlimit="10" stroke-linecap="round" stroke-linejoin="round"/>
<path d="M325.335 1081.79L328.973 1111.56H428.933L432.57 1081.79H325.335Z" fill="#858585" stroke="#263238" stroke-miterlimit="10" stroke-linecap="round" stroke-linejoin="round"/>
<path d="M418.601 1081.79L418.356 1111.56H428.933L432.571 1081.79H418.601Z" fill="#666666" stroke="#263238" stroke-miterlimit="10" stroke-linecap="round" stroke-linejoin="round"/>
<path d="M205.873 1272.75C205.873 1272.75 16.9283 1278.32 3.0501 1275.53C-10.8281 1272.75 47.497 1253.31 125.294 1243.59C203.091 1233.87 330.899 1274.16 330.899 1274.16L205.873 1272.75Z" fill="#FF823C" stroke="#263238" stroke-miterlimit="10" stroke-linecap="round" stroke-linejoin="round"/>
<path d="M429.3 1134.89C415.391 1135.32 401.482 1136.51 387.635 1138.07C362.324 1140.94 313.567 1137.7 294.461 1156.84C294.461 1156.84 266.674 1199.91 255.547 1217.97C244.42 1236.04 236.106 1247.14 224.979 1251.32C213.852 1255.48 166.623 1274.95 166.623 1274.95H561.173C561.173 1274.95 619.162 1276.97 638.634 1253.37C659.604 1227.91 623.869 1198.84 605.65 1185.2C575.51 1162.64 542.373 1152.92 506.394 1142.99C481.083 1135.99 455.191 1134.09 429.3 1134.89Z" fill="#FF823C" stroke="#263238" stroke-miterlimit="10" stroke-linecap="round" stroke-linejoin="round"/>
<path d="M546.164 1242.77C546.164 1242.77 608.31 1230.63 662.875 1241.24C717.44 1251.84 794.718 1242.77 831.095 1245.79C867.471 1248.82 926.591 1256.4 926.591 1256.4C926.591 1256.4 835.649 1271.56 788.665 1274.59C741.681 1277.61 697.723 1280.64 697.723 1280.64C697.723 1280.64 673.483 1282.17 609.808 1262.45C546.164 1242.77 546.164 1242.77 546.164 1242.77Z" fill="#FF823C" stroke="#263238" stroke-miterlimit="10" stroke-linecap="round" stroke-linejoin="round"/>
<path d="M415.819 1274.59C415.819 1274.59 453.724 1271.56 500.708 1253.37C547.692 1235.18 574.96 1238.21 609.838 1251.84C644.687 1265.48 656.823 1277.61 697.754 1280.64L415.819 1274.59Z" fill="#B7825B" stroke="#263238" stroke-miterlimit="10" stroke-linecap="round" stroke-linejoin="round"/>
</svg>
